<?xml version="1.0" encoding="UTF-8" standalone="no"?>
<!-- Created with Inkscape (http://www.inkscape.org/) -->

<svg
   version="1.1"
   id="svg1"
   width="133.06641"
   height="110.55365"
   viewBox="0 0 133.06642 110.55365"
   sodipodi:docname="abstraccion.svg"
   xml:space="preserve"
   inkscape:version="1.3.2 (091e20e, 2023-11-25, custom)"
   xmlns:inkscape="http://www.inkscape.org/namespaces/inkscape"
   xmlns:sodipodi="http://sodipodi.sourceforge.net/DTD/sodipodi-0.dtd"
   xmlns="http://www.w3.org/2000/svg"
   xmlns:svg="http://www.w3.org/2000/svg"><sodipodi:namedview
     id="namedview1"
     pagecolor="#505050"
     bordercolor="#eeeeee"
     borderopacity="1"
     inkscape:showpageshadow="0"
     inkscape:pageopacity="0"
     inkscape:pagecheckerboard="0"
     inkscape:deskcolor="#505050"
     inkscape:zoom="0.26082666"
     inkscape:cx="-1717.6158"
     inkscape:cy="3295.292"
     inkscape:window-width="1600"
     inkscape:window-height="829"
     inkscape:window-x="-8"
     inkscape:window-y="-8"
     inkscape:window-maximized="1"
     inkscape:current-layer="layer-MC0" /><defs
     id="defs1"><clipPath
       clipPathUnits="userSpaceOnUse"
       id="clipPath4"><path
         d="M 0,768 H 1024 V 0 H 0 Z"
         transform="translate(-323.03121,-349.89651)"
         id="path4" /></clipPath><clipPath
       clipPathUnits="userSpaceOnUse"
       id="clipPath6"><path
         d="M 0,768 H 1024 V 0 H 0 Z"
         transform="translate(-559.41991,-432.57571)"
         id="path6" /></clipPath><clipPath
       clipPathUnits="userSpaceOnUse"
       id="clipPath8"><path
         d="M 0,768 H 1024 V 0 H 0 Z"
         transform="translate(-599.61911,-441.46341)"
         id="path8" /></clipPath><clipPath
       clipPathUnits="userSpaceOnUse"
       id="clipPath20"><path
         d="M 0,768 H 1024 V 0 H 0 Z"
         transform="translate(-662.42972,-484.57521)"
         id="path20" /></clipPath></defs><g
     id="layer-MC0"
     inkscape:groupmode="layer"
     inkscape:label="Layer 1"
     transform="translate(-2935.385,-925.06708)"><g
       id="g1055"><path
         style="fill:#ea2929;fill-opacity:1;stroke:none;stroke-width:4.96468;stroke-linecap:round;stroke-linejoin:round;stroke-dasharray:none;stroke-dashoffset:0;stroke-opacity:1;paint-order:stroke markers fill"
         d="m 1530.9713,919.6082 v 171.9467 h 332.0037 c -125.4298,-13.1406 -244.8458,-72.4329 -332.0037,-171.9467 z"
         id="path1031" /><path
         style="fill:#ea2929;fill-opacity:1;stroke:none;stroke-width:3.30749;stroke-linecap:round;stroke-linejoin:round;stroke-dasharray:none;stroke-dashoffset:0;stroke-opacity:1;paint-order:stroke markers fill"
         d="M 1530.9713,11.841147 V 348.08622 c 52.5821,-126.99505 150.5908,-230.05565 275.2817,-288.622274 53.3074,-24.814897 109.9308,-40.738539 167.6659,-47.622799 z"
         id="path1032" /><path
         style="fill:#ea2929;fill-opacity:1;stroke:none;stroke-width:2.28165;stroke-linecap:round;stroke-linejoin:round;stroke-dasharray:none;stroke-dashoffset:0;stroke-opacity:1;paint-order:stroke markers fill"
         d="m 2607.0392,639.35673 c -2.8256,6.14937 -176.1887,383.44557 -183.9798,396.32107 -13.6775,22.6047 -47.333,48.995 -90.6893,55.8771 h 274.6691 z"
         id="path1033" /><g
         id="g1042"
         transform="matrix(0.27161487,0,0,0.27161487,3604.0418,623.39033)"><path
           id="path1034"
           d="m 0,0 c -3.014,-2.844 -6.984,-9.088 -6.984,-16.928 0,-9.843 5.822,-15.593 6.923,-16.697 2.977,-2.975 13.414,-8.836 24.653,-8.836 14.539,0 27.674,9.371 33.654,15.354 9.567,9.566 15.822,24.101 15.822,24.101 l 31.593,66.957 54.325,117.177 c 0,0 -11.185,6.886 -28.084,6.886 -21.398,0 -35.533,-9.389 -43.927,-17.783 C 71.736,153.993 74.412,136.186 74.6,135.999 c -0.924,-0.925 -4.56,-3.472 -9.192,-3.472 -3.595,0 -7.482,1.178 -10.579,4.273 -2.487,2.486 -4.27,5.963 -4.27,10.314 0,5.251 3.774,15.701 11.22,23.148 9.409,9.409 41.486,30.359 81.84,30.359 29.172,0 52.364,-11.703 52.364,-11.703 L 133.369,53.673 107.383,-0.967 c 0,0 -7.572,-17.945 -21.276,-31.648 C 69.921,-48.803 52.963,-56.941 34.8,-56.941 c -26.353,0 -41.465,15.535 -44.083,18.154 -5.526,5.523 -15.994,18.699 -15.994,32.998 0,14.271 7.511,23.398 11.021,26.908 2.994,2.994 6.984,4.756 11.01,4.756 4.9,0 7.993,-1.773 10.419,-4.199 3.184,-3.186 4.231,-7.26 4.231,-9.903 C 11.404,8.266 10.327,7.07 9.436,6.131 8.112,4.742 5.434,5.127 0,0"
           style="fill:#ffffff;fill-opacity:1;fill-rule:nonzero;stroke:none"
           transform="matrix(1.3333333,2.1492314e-8,2.1492314e-8,-1.3333333,-2428.08,1378.173)"
           clip-path="url(#clipPath4)" /><path
           id="path1035"
           d="m 0,0 c 0,1.575 -0.162,3.453 -1.686,4.976 -1.018,1.018 -2.615,1.764 -5.501,1.764 -3.172,0 -18.098,-2.638 -32.153,-16.692 -6.808,-6.808 -8.52,-10.86 -8.52,-14.483 0,-1.224 -0.152,-2.395 2.141,-4.688 0.623,-0.624 4.01,-2.591 8.406,-2.591 9.397,0 19.186,3.351 26.945,11.11 C -1.068,-11.304 0,-1.843 0,0 m 29.786,-19.536 c 1.174,0 1.761,-1.907 1.761,-5.721 0,-3.815 -1.568,-8.362 -4.695,-13.643 -3.132,-5.281 -5.274,-9.297 -8.522,-13.844 0,0 -7.517,-14.445 -18.209,-25.138 -20.422,-20.42 -39.467,-22.537 -50.206,-22.537 -9.225,0 -19.186,3.078 -27.27,11.164 -9.274,9.273 -10.948,19.537 -10.948,26.423 0,16.651 9.026,44.154 28.848,63.977 2.113,2.112 21.225,21.409 40.788,21.409 10.677,0 20.158,-4.323 27.164,-11.328 2.261,-2.261 3.353,-6.768 3.353,-12.129 0,-7.195 -2.322,-18.197 -10.332,-26.208 -7.182,-7.182 -21.134,-16.939 -36.741,-16.939 -7.287,0 -15.279,3.197 -17.625,5.545 -1.662,1.66 -2.923,4.204 -2.923,4.204 0,0 -6.56,-13.517 -6.56,-24.185 0,-6.597 3.28,-13.137 6.96,-16.818 5.525,-5.524 12.787,-6.979 17.141,-6.979 13.24,0 28.638,6.348 40.166,17.873 12.373,12.371 20.638,35.025 20.638,35.025 0.779,1.366 6.626,9.849 7.212,9.849"
           style="fill:#ffffff;fill-opacity:1;fill-rule:nonzero;stroke:none"
           transform="matrix(1.3333333,2.1492314e-8,2.1492314e-8,-1.3333333,-2113.973,1265.4883)"
           clip-path="url(#clipPath6)" /><path
           id="path1036"
           d="m 0,0 c 0,0 1.947,3.91 4.797,6.76 5.191,5.189 11.803,6.906 16.762,6.906 6.728,0 11.364,-2.811 11.364,-2.811 L -0.631,-61.122 c 0,0 -3.25,-6.968 -3.25,-10.582 0,-5.675 5.389,-14.316 14.625,-14.316 2.543,0 5.188,1.197 5.367,1.021 0.179,-0.177 -0.244,-3.043 -7.134,-9.931 -6.59,-6.59 -14.029,-9.502 -20.286,-9.502 -7.223,0 -13.545,3.689 -16.834,6.976 -5.705,5.704 -7.095,11.436 -7.095,17.424 0,7.088 10.349,26.387 10.349,26.387 z"
           style="fill:#ffffff;fill-opacity:1;fill-rule:nonzero;stroke:none"
           transform="matrix(1.3333333,2.1492314e-8,2.1492314e-8,-1.3333333,-2060.0468,1252.4013)"
           clip-path="url(#clipPath8)" /><path
           id="path1042"
           d="m 0,0 c -5.344,-11.974 -19.382,-17.348 -31.354,-12.004 -11.974,5.343 -17.348,19.38 -12.005,31.354 5.343,11.973 19.381,17.347 31.354,12.004 C -0.031,26.011 5.343,11.973 0,0"
           style="fill:#ffffff;fill-opacity:1;fill-rule:nonzero;stroke:none"
           transform="matrix(1.3333333,0,0,-1.3333333,-1974.6301,1181.0808)"
           clip-path="url(#clipPath20)" /><text
           xml:space="preserve"
           style="font-style:normal;font-variant:normal;font-weight:bold;font-stretch:normal;font-size:99.0214px;line-height:1;font-family:'Century Gothic';-inkscape-font-specification:'Century Gothic Bold';letter-spacing:0px;word-spacing:1.03147px;fill:#ffffff;fill-opacity:1;stroke:none;stroke-width:3.89845;stroke-linecap:round;paint-order:markers fill stroke"
           x="-2260.0435"
           y="1497.1047"
           id="text1"><tspan
             sodipodi:role="line"
             id="tspan1"
             x="-2260.0435"
             y="1497.1047"
             style="font-style:normal;font-variant:normal;font-weight:bold;font-stretch:normal;font-family:'Century Gothic';-inkscape-font-specification:'Century Gothic Bold';stroke-width:3.89845">Dsgn</tspan></text></g></g></g></svg>
