<?xml version="1.0" encoding="UTF-8" standalone="no"?>
<!-- Created with Inkscape (http://www.inkscape.org/) -->

<svg
   version="1.1"
   id="svg1"
   width="1463.1974"
   height="1920"
   viewBox="0 0 1463.1975 1920"
   sodipodi:docname="abstraccion.svg"
   xml:space="preserve"
   inkscape:version="1.3.2 (091e20e, 2023-11-25, custom)"
   xmlns:inkscape="http://www.inkscape.org/namespaces/inkscape"
   xmlns:sodipodi="http://sodipodi.sourceforge.net/DTD/sodipodi-0.dtd"
   xmlns="http://www.w3.org/2000/svg"
   xmlns:svg="http://www.w3.org/2000/svg"><sodipodi:namedview
     id="namedview1"
     pagecolor="#505050"
     bordercolor="#eeeeee"
     borderopacity="1"
     inkscape:showpageshadow="0"
     inkscape:pageopacity="0"
     inkscape:pagecheckerboard="0"
     inkscape:deskcolor="#505050"
     inkscape:zoom="0.26082666"
     inkscape:cx="-1717.6158"
     inkscape:cy="3295.292"
     inkscape:window-width="1600"
     inkscape:window-height="829"
     inkscape:window-x="-8"
     inkscape:window-y="-8"
     inkscape:window-maximized="1"
     inkscape:current-layer="layer-MC0" /><defs
     id="defs1"><clipPath
       clipPathUnits="userSpaceOnUse"
       id="clipPath3529"><rect
         style="opacity:1;fill:#000000;fill-opacity:1;stroke:none;stroke-width:1.55545;stroke-linecap:round;stroke-linejoin:round;stroke-dasharray:none;stroke-dashoffset:0;stroke-opacity:1;paint-order:stroke markers fill"
         id="rect3530"
         width="1951.48"
         height="2560.7219"
         x="-229.53787"
         y="4375.3242" /></clipPath><clipPath
       clipPathUnits="userSpaceOnUse"
       id="clipPath3530"><rect
         style="opacity:1;fill:#000000;fill-opacity:1;stroke:none;stroke-width:1.55545;stroke-linecap:round;stroke-linejoin:round;stroke-dasharray:none;stroke-dashoffset:0;stroke-opacity:1;paint-order:stroke markers fill"
         id="rect3531"
         width="1951.48"
         height="2560.7219"
         x="1721.9424"
         y="4375.3242" /></clipPath><clipPath
       clipPathUnits="userSpaceOnUse"
       id="clipPath3531"><rect
         style="opacity:1;fill:#000000;fill-opacity:1;stroke:none;stroke-width:1.55545;stroke-linecap:round;stroke-linejoin:round;stroke-dasharray:none;stroke-dashoffset:0;stroke-opacity:1;paint-order:stroke markers fill"
         id="rect3532"
         width="1951.48"
         height="2560.7219"
         x="-229.53787"
         y="6936.0469" /></clipPath><clipPath
       clipPathUnits="userSpaceOnUse"
       id="clipPath3532"><rect
         style="opacity:1;fill:#000000;fill-opacity:1;stroke:none;stroke-width:1.55545;stroke-linecap:round;stroke-linejoin:round;stroke-dasharray:none;stroke-dashoffset:0;stroke-opacity:1;paint-order:stroke markers fill"
         id="rect3533"
         width="1951.48"
         height="2560.7219"
         x="1721.9424"
         y="6936.0469" /></clipPath></defs><g
     id="layer-MC0"
     inkscape:groupmode="layer"
     inkscape:label="Layer 1"
     transform="translate(2151.7466,-4893.5698)"><g
       id="g3533"
       transform="matrix(0.74978853,0,0,0.74978853,-3308.1039,1598.7268)"
       style="opacity:1;fill:#e2e2e2;fill-opacity:1"><g
         id="g3349"
         transform="translate(-179.6977,-2541.6838)"
         clip-path="url(#clipPath3532)"
         style="fill:#e2e2e2;fill-opacity:1"><g
           id="g3315"
           transform="matrix(1.4374921,0,0,1.4374921,-304.28775,2332.6662)"
           style="fill:#e2e2e2;fill-opacity:1"><path
             d="m 1061.5028,2938.222 c -68.72452,0.1911 -134.73182,26.8665 -184.29252,74.4777 l -80.92,173.5315 -31.015,66.512 -88.82899,190.4967 c 19.2946,72.2186 84.71249,122.4579 159.46399,122.465 67.3927,-0.6115 121.0353,-40.104 141.0446,-73.1727 9.9763,-16.4875 235.53482,-507.4166 235.53482,-507.4166 -44.4431,-30.5101 -97.0792,-46.8578 -150.9869,-46.8936 z"
             style="fill:#e2e2e2;fill-opacity:1;stroke:none;stroke-width:3.6367;stroke-linecap:round;stroke-linejoin:round;stroke-dasharray:none;paint-order:stroke markers fill"
             id="path3313"
             sodipodi:nodetypes="ccccccscc" /><path
             d="m 1332.1318,3204.232 a 165.07365,165.07365 0 0 0 -98.1339,-32.4817 165.07365,165.07365 0 0 0 -15.4667,1.7438 267.08921,267.08921 0 0 0 -128.3427,227.6628 267.08921,267.08921 0 0 0 1.5378,17.5656 165.07365,165.07365 0 0 0 37.1198,44.9331 267.08921,267.08921 0 0 0 203.3177,-258.3724 267.08921,267.08921 0 0 0 -0.033,-1.0512 z"
             style="fill:#e2e2e2;fill-opacity:1;stroke:none;stroke-width:3.6367;stroke-linecap:round;stroke-linejoin:round;stroke-dasharray:none;paint-order:stroke markers fill"
             id="path3314" /><path
             d="m 1468.5057,3179.9556 c -23.3992,0.344 -44.6834,13.6189 -55.2856,34.481 l -3.6367,7.7956 -65.4784,140.4176 -12.0856,25.9185 c -1.3136,4.2244 -2.1789,8.5752 -2.5819,12.9807 0.1146,24.9259 14.9032,47.4447 37.7307,57.4554 l 53.1158,-113.9059 21.3087,-45.6931 53.0092,-113.6824 c -8.1867,-3.7651 -17.0854,-5.7318 -26.0962,-5.7674 z"
             style="fill:#e2e2e2;fill-opacity:1;stroke:none;stroke-width:3.6367;stroke-linecap:round;stroke-linejoin:round;stroke-dasharray:none;paint-order:stroke markers fill"
             id="path3315" /></g><g
           id="g3318"
           transform="matrix(1.1163022,0,0,1.0721069,803.69198,2891.1195)"
           style="fill:#e2e2e2;fill-opacity:1"><path
             d="m 1061.5028,2938.222 c -68.72452,0.1911 -134.73182,26.8665 -184.29252,74.4777 l -80.92,173.5315 -31.015,66.512 -88.82899,190.4967 c 19.2946,72.2186 84.71249,122.4579 159.46399,122.465 67.3927,-0.6115 121.0353,-40.104 141.0446,-73.1727 9.9763,-16.4875 235.53482,-507.4166 235.53482,-507.4166 -44.4431,-30.5101 -97.0792,-46.8578 -150.9869,-46.8936 z"
             style="fill:#e2e2e2;fill-opacity:1;stroke:none;stroke-width:3.6367;stroke-linecap:round;stroke-linejoin:round;stroke-dasharray:none;paint-order:stroke markers fill"
             id="path3316"
             sodipodi:nodetypes="ccccccscc" /><path
             d="m 1332.1318,3204.232 a 165.07365,165.07365 0 0 0 -98.1339,-32.4817 165.07365,165.07365 0 0 0 -15.4667,1.7438 267.08921,267.08921 0 0 0 -128.3427,227.6628 267.08921,267.08921 0 0 0 1.5378,17.5656 165.07365,165.07365 0 0 0 37.1198,44.9331 267.08921,267.08921 0 0 0 203.3177,-258.3724 267.08921,267.08921 0 0 0 -0.033,-1.0512 z"
             style="fill:#e2e2e2;fill-opacity:1;stroke:none;stroke-width:3.6367;stroke-linecap:round;stroke-linejoin:round;stroke-dasharray:none;paint-order:stroke markers fill"
             id="path3317" /><path
             d="m 1468.5057,3179.9556 c -23.3992,0.344 -44.6834,13.6189 -55.2856,34.481 l -3.6367,7.7956 -65.4784,140.4176 -12.0856,25.9185 c -1.3136,4.2244 -2.1789,8.5752 -2.5819,12.9807 0.1146,24.9259 14.9032,47.4447 37.7307,57.4554 l 53.1158,-113.9059 21.3087,-45.6931 53.0092,-113.6824 c -8.1867,-3.7651 -17.0854,-5.7318 -26.0962,-5.7674 z"
             style="fill:#e2e2e2;fill-opacity:1;stroke:none;stroke-width:3.6367;stroke-linecap:round;stroke-linejoin:round;stroke-dasharray:none;paint-order:stroke markers fill"
             id="path3318" /></g><g
           id="g3321"
           transform="matrix(0.24527062,0,0,0.24527062,1894.8395,7227.0277)"
           style="fill:#e2e2e2;fill-opacity:1"><path
             d="m 1009.5164,2938.222 c -68.72476,0.1911 -134.73206,26.8665 -184.29276,74.4777 l -80.92,173.5315 -31.015,66.512 -88.82899,190.4967 c 19.2946,72.2186 84.71249,122.4579 159.46399,122.465 67.3927,-0.6115 121.0353,-40.104 141.0446,-73.1727 9.9763,-16.4875 235.53506,-507.4166 235.53506,-507.4166 -44.4431,-30.5101 -97.0792,-46.8578 -150.9869,-46.8936 z"
             style="fill:#e2e2e2;fill-opacity:1;stroke:none;stroke-width:3.6367;stroke-linecap:round;stroke-linejoin:round;stroke-dasharray:none;paint-order:stroke markers fill"
             id="path3319"
             sodipodi:nodetypes="ccccccscc" /><path
             d="m 1332.1318,3204.232 a 165.07365,165.07365 0 0 0 -98.1339,-32.4817 165.07365,165.07365 0 0 0 -15.4667,1.7438 267.08921,267.08921 0 0 0 -128.3427,227.6628 267.08921,267.08921 0 0 0 1.5378,17.5656 165.07365,165.07365 0 0 0 37.1198,44.9331 267.08921,267.08921 0 0 0 203.3177,-258.3724 267.08921,267.08921 0 0 0 -0.033,-1.0512 z"
             style="fill:#e2e2e2;fill-opacity:1;stroke:none;stroke-width:3.6367;stroke-linecap:round;stroke-linejoin:round;stroke-dasharray:none;paint-order:stroke markers fill"
             id="path3320" /><path
             d="m 1507.4955,3179.9556 c -23.3992,0.344 -44.6834,13.6189 -55.2856,34.481 l -3.6367,7.7956 -65.4784,140.4176 -12.0856,25.9185 c -1.3136,4.2244 -2.1789,8.5752 -2.5819,12.9807 0.1146,24.9259 14.9032,47.4447 37.7307,57.4554 l 53.1158,-113.9059 21.3087,-45.6931 53.0092,-113.6824 c -8.1867,-3.7651 -17.0854,-5.7318 -26.0962,-5.7674 z"
             style="fill:#e2e2e2;fill-opacity:1;stroke:none;stroke-width:3.6367;stroke-linecap:round;stroke-linejoin:round;stroke-dasharray:none;paint-order:stroke markers fill"
             id="path3321" /></g><g
           id="g3324"
           transform="matrix(1.225088,0,0,1.225088,-207.05834,2191.3398)"
           style="fill:#e2e2e2;fill-opacity:1"><path
             d="m 1061.5028,2938.222 c -68.72452,0.1911 -134.73182,26.8665 -184.29252,74.4777 l -80.92,173.5315 -31.015,66.512 -88.82899,190.4967 c 19.2946,72.2186 84.71249,122.4579 159.46399,122.465 67.3927,-0.6115 121.0353,-40.104 141.0446,-73.1727 9.9763,-16.4875 235.53482,-507.4166 235.53482,-507.4166 -44.4431,-30.5101 -97.0792,-46.8578 -150.9869,-46.8936 z"
             style="fill:#e2e2e2;fill-opacity:1;stroke:none;stroke-width:3.6367;stroke-linecap:round;stroke-linejoin:round;stroke-dasharray:none;paint-order:stroke markers fill"
             id="path3322"
             sodipodi:nodetypes="ccccccscc" /><path
             d="m 1332.1318,3204.232 a 165.07365,165.07365 0 0 0 -98.1339,-32.4817 165.07365,165.07365 0 0 0 -15.4667,1.7438 267.08921,267.08921 0 0 0 -128.3427,227.6628 267.08921,267.08921 0 0 0 1.5378,17.5656 165.07365,165.07365 0 0 0 37.1198,44.9331 267.08921,267.08921 0 0 0 203.3177,-258.3724 267.08921,267.08921 0 0 0 -0.033,-1.0512 z"
             style="fill:#e2e2e2;fill-opacity:1;stroke:none;stroke-width:3.6367;stroke-linecap:round;stroke-linejoin:round;stroke-dasharray:none;paint-order:stroke markers fill"
             id="path3323" /><path
             d="m 1468.5057,3179.9556 c -23.3992,0.344 -44.6834,13.6189 -55.2856,34.481 l -3.6367,7.7956 -65.4784,140.4176 -12.0856,25.9185 c -1.3136,4.2244 -2.1789,8.5752 -2.5819,12.9807 0.1146,24.9259 14.9032,47.4447 37.7307,57.4554 l 53.1158,-113.9059 21.3087,-45.6931 53.0092,-113.6824 c -8.1867,-3.7651 -17.0854,-5.7318 -26.0962,-5.7674 z"
             style="fill:#e2e2e2;fill-opacity:1;stroke:none;stroke-width:3.6367;stroke-linecap:round;stroke-linejoin:round;stroke-dasharray:none;paint-order:stroke markers fill"
             id="path3324" /></g><g
           id="g3327"
           transform="matrix(0.95115448,0,0,0.95115448,733.69033,5194.2702)"
           style="fill:#e2e2e2;fill-opacity:1"><path
             d="m 1061.5028,2938.222 c -68.72452,0.1911 -134.73182,26.8665 -184.29252,74.4777 l -80.92,173.5315 -31.015,66.512 -88.82899,190.4967 c 19.2946,72.2186 84.71249,122.4579 159.46399,122.465 67.3927,-0.6115 121.0353,-40.104 141.0446,-73.1727 9.9763,-16.4875 235.53482,-507.4166 235.53482,-507.4166 -44.4431,-30.5101 -97.0792,-46.8578 -150.9869,-46.8936 z"
             style="fill:#e2e2e2;fill-opacity:1;stroke:none;stroke-width:3.6367;stroke-linecap:round;stroke-linejoin:round;stroke-dasharray:none;paint-order:stroke markers fill"
             id="path3325"
             sodipodi:nodetypes="ccccccscc" /><path
             d="m 1332.1318,3204.232 a 165.07365,165.07365 0 0 0 -98.1339,-32.4817 165.07365,165.07365 0 0 0 -15.4667,1.7438 267.08921,267.08921 0 0 0 -128.3427,227.6628 267.08921,267.08921 0 0 0 1.5378,17.5656 165.07365,165.07365 0 0 0 37.1198,44.9331 267.08921,267.08921 0 0 0 203.3177,-258.3724 267.08921,267.08921 0 0 0 -0.033,-1.0512 z"
             style="fill:#e2e2e2;fill-opacity:1;stroke:none;stroke-width:3.6367;stroke-linecap:round;stroke-linejoin:round;stroke-dasharray:none;paint-order:stroke markers fill"
             id="path3326" /><path
             d="m 1468.5057,3179.9556 c -23.3992,0.344 -44.6834,13.6189 -55.2856,34.481 l -3.6367,7.7956 -65.4784,140.4176 -12.0856,25.9185 c -1.3136,4.2244 -2.1789,8.5752 -2.5819,12.9807 0.1146,24.9259 14.9032,47.4447 37.7307,57.4554 l 53.1158,-113.9059 21.3087,-45.6931 53.0092,-113.6824 c -8.1867,-3.7651 -17.0854,-5.7318 -26.0962,-5.7674 z"
             style="fill:#e2e2e2;fill-opacity:1;stroke:none;stroke-width:3.6367;stroke-linecap:round;stroke-linejoin:round;stroke-dasharray:none;paint-order:stroke markers fill"
             id="path3327" /></g><g
           id="g3330"
           transform="matrix(0.32424572,0,0,0.32424572,2088.84,6402.496)"
           style="fill:#e2e2e2;fill-opacity:1"><path
             d="m 1061.5028,2938.222 c -68.72452,0.1911 -134.73182,26.8665 -184.29252,74.4777 l -80.92,173.5315 -31.015,66.512 -88.82899,190.4967 c 19.2946,72.2186 84.71249,122.4579 159.46399,122.465 67.3927,-0.6115 121.0353,-40.104 141.0446,-73.1727 9.9763,-16.4875 235.53482,-507.4166 235.53482,-507.4166 -44.4431,-30.5101 -97.0792,-46.8578 -150.9869,-46.8936 z"
             style="fill:#e2e2e2;fill-opacity:1;stroke:none;stroke-width:3.6367;stroke-linecap:round;stroke-linejoin:round;stroke-dasharray:none;paint-order:stroke markers fill"
             id="path3328"
             sodipodi:nodetypes="ccccccscc" /><path
             d="m 1332.1318,3204.232 a 165.07365,165.07365 0 0 0 -98.1339,-32.4817 165.07365,165.07365 0 0 0 -15.4667,1.7438 267.08921,267.08921 0 0 0 -128.3427,227.6628 267.08921,267.08921 0 0 0 1.5378,17.5656 165.07365,165.07365 0 0 0 37.1198,44.9331 267.08921,267.08921 0 0 0 203.3177,-258.3724 267.08921,267.08921 0 0 0 -0.033,-1.0512 z"
             style="fill:#e2e2e2;fill-opacity:1;stroke:none;stroke-width:3.6367;stroke-linecap:round;stroke-linejoin:round;stroke-dasharray:none;paint-order:stroke markers fill"
             id="path3329" /><path
             d="m 1468.5057,3179.9556 c -23.3992,0.344 -44.6834,13.6189 -55.2856,34.481 l -3.6367,7.7956 -65.4784,140.4176 -12.0856,25.9185 c -1.3136,4.2244 -2.1789,8.5752 -2.5819,12.9807 0.1146,24.9259 14.9032,47.4447 37.7307,57.4554 l 53.1158,-113.9059 21.3087,-45.6931 53.0092,-113.6824 c -8.1867,-3.7651 -17.0854,-5.7318 -26.0962,-5.7674 z"
             style="fill:#e2e2e2;fill-opacity:1;stroke:none;stroke-width:3.6367;stroke-linecap:round;stroke-linejoin:round;stroke-dasharray:none;paint-order:stroke markers fill"
             id="path3330" /></g><g
           id="g3333"
           transform="matrix(0.6682082,0,0,0.6682082,779.1125,5414.0624)"
           style="fill:#e2e2e2;fill-opacity:1"><path
             d="m 1061.5028,2938.222 c -68.72452,0.1911 -134.73182,26.8665 -184.29252,74.4777 l -80.92,173.5315 -31.015,66.512 -88.82899,190.4967 c 19.2946,72.2186 84.71249,122.4579 159.46399,122.465 67.3927,-0.6115 121.0353,-40.104 141.0446,-73.1727 9.9763,-16.4875 235.53482,-507.4166 235.53482,-507.4166 -44.4431,-30.5101 -97.0792,-46.8578 -150.9869,-46.8936 z"
             style="fill:#e2e2e2;fill-opacity:1;stroke:none;stroke-width:3.6367;stroke-linecap:round;stroke-linejoin:round;stroke-dasharray:none;paint-order:stroke markers fill"
             id="path3331"
             sodipodi:nodetypes="ccccccscc" /><path
             d="m 1332.1318,3204.232 a 165.07365,165.07365 0 0 0 -98.1339,-32.4817 165.07365,165.07365 0 0 0 -15.4667,1.7438 267.08921,267.08921 0 0 0 -128.3427,227.6628 267.08921,267.08921 0 0 0 1.5378,17.5656 165.07365,165.07365 0 0 0 37.1198,44.9331 267.08921,267.08921 0 0 0 203.3177,-258.3724 267.08921,267.08921 0 0 0 -0.033,-1.0512 z"
             style="fill:#e2e2e2;fill-opacity:1;stroke:none;stroke-width:3.6367;stroke-linecap:round;stroke-linejoin:round;stroke-dasharray:none;paint-order:stroke markers fill"
             id="path3332" /><path
             d="m 1468.5057,3179.9556 c -23.3992,0.344 -44.6834,13.6189 -55.2856,34.481 l -3.6367,7.7956 -65.4784,140.4176 -12.0856,25.9185 c -1.3136,4.2244 -2.1789,8.5752 -2.5819,12.9807 0.1146,24.9259 14.9032,47.4447 37.7307,57.4554 l 53.1158,-113.9059 21.3087,-45.6931 53.0092,-113.6824 c -8.1867,-3.7651 -17.0854,-5.7318 -26.0962,-5.7674 z"
             style="fill:#e2e2e2;fill-opacity:1;stroke:none;stroke-width:3.6367;stroke-linecap:round;stroke-linejoin:round;stroke-dasharray:none;paint-order:stroke markers fill"
             id="path3333" /></g><g
           id="g3336"
           transform="matrix(0.958174,0,0,0.958174,1210.9446,3932.2376)"
           style="fill:#e2e2e2;fill-opacity:1"><path
             d="m 1061.5028,2938.222 c -68.72452,0.1911 -134.73182,26.8665 -184.29252,74.4777 l -80.92,173.5315 -31.015,66.512 -88.82899,190.4967 c 19.2946,72.2186 84.71249,122.4579 159.46399,122.465 67.3927,-0.6115 121.0353,-40.104 141.0446,-73.1727 9.9763,-16.4875 235.53482,-507.4166 235.53482,-507.4166 -44.4431,-30.5101 -97.0792,-46.8578 -150.9869,-46.8936 z"
             style="fill:#e2e2e2;fill-opacity:1;stroke:none;stroke-width:3.6367;stroke-linecap:round;stroke-linejoin:round;stroke-dasharray:none;paint-order:stroke markers fill"
             id="path3334"
             sodipodi:nodetypes="ccccccscc" /><path
             d="m 1332.1318,3204.232 a 165.07365,165.07365 0 0 0 -98.1339,-32.4817 165.07365,165.07365 0 0 0 -15.4667,1.7438 267.08921,267.08921 0 0 0 -128.3427,227.6628 267.08921,267.08921 0 0 0 1.5378,17.5656 165.07365,165.07365 0 0 0 37.1198,44.9331 267.08921,267.08921 0 0 0 203.3177,-258.3724 267.08921,267.08921 0 0 0 -0.033,-1.0512 z"
             style="fill:#e2e2e2;fill-opacity:1;stroke:none;stroke-width:3.6367;stroke-linecap:round;stroke-linejoin:round;stroke-dasharray:none;paint-order:stroke markers fill"
             id="path3335" /><path
             d="m 1468.5057,3179.9556 c -23.3992,0.344 -44.6834,13.6189 -55.2856,34.481 l -3.6367,7.7956 -65.4784,140.4176 -12.0856,25.9185 c -1.3136,4.2244 -2.1789,8.5752 -2.5819,12.9807 0.1146,24.9259 14.9032,47.4447 37.7307,57.4554 l 53.1158,-113.9059 21.3087,-45.6931 53.0092,-113.6824 c -8.1867,-3.7651 -17.0854,-5.7318 -26.0962,-5.7674 z"
             style="fill:#e2e2e2;fill-opacity:1;stroke:none;stroke-width:3.6367;stroke-linecap:round;stroke-linejoin:round;stroke-dasharray:none;paint-order:stroke markers fill"
             id="path3336" /></g><g
           id="g3339"
           transform="matrix(0.31209844,0,0,0.31209844,2286.2945,5760.867)"
           style="fill:#e2e2e2;fill-opacity:1"><path
             d="m 1061.5028,2938.222 c -68.72452,0.1911 -134.73182,26.8665 -184.29252,74.4777 l -80.92,173.5315 -31.015,66.512 -88.82899,190.4967 c 19.2946,72.2186 84.71249,122.4579 159.46399,122.465 67.3927,-0.6115 121.0353,-40.104 141.0446,-73.1727 9.9763,-16.4875 235.53482,-507.4166 235.53482,-507.4166 -44.4431,-30.5101 -97.0792,-46.8578 -150.9869,-46.8936 z"
             style="fill:#e2e2e2;fill-opacity:1;stroke:none;stroke-width:3.6367;stroke-linecap:round;stroke-linejoin:round;stroke-dasharray:none;paint-order:stroke markers fill"
             id="path3337"
             sodipodi:nodetypes="ccccccscc" /><path
             d="m 1332.1318,3204.232 a 165.07365,165.07365 0 0 0 -98.1339,-32.4817 165.07365,165.07365 0 0 0 -15.4667,1.7438 267.08921,267.08921 0 0 0 -128.3427,227.6628 267.08921,267.08921 0 0 0 1.5378,17.5656 165.07365,165.07365 0 0 0 37.1198,44.9331 267.08921,267.08921 0 0 0 203.3177,-258.3724 267.08921,267.08921 0 0 0 -0.033,-1.0512 z"
             style="fill:#e2e2e2;fill-opacity:1;stroke:none;stroke-width:3.6367;stroke-linecap:round;stroke-linejoin:round;stroke-dasharray:none;paint-order:stroke markers fill"
             id="path3338" /><path
             d="m 1468.5057,3179.9556 c -23.3992,0.344 -44.6834,13.6189 -55.2856,34.481 l -3.6367,7.7956 -65.4784,140.4176 -12.0856,25.9185 c -1.3136,4.2244 -2.1789,8.5752 -2.5819,12.9807 0.1146,24.9259 14.9032,47.4447 37.7307,57.4554 l 53.1158,-113.9059 21.3087,-45.6931 53.0092,-113.6824 c -8.1867,-3.7651 -17.0854,-5.7318 -26.0962,-5.7674 z"
             style="fill:#e2e2e2;fill-opacity:1;stroke:none;stroke-width:3.6367;stroke-linecap:round;stroke-linejoin:round;stroke-dasharray:none;paint-order:stroke markers fill"
             id="path3339" /></g><g
           id="g3342"
           transform="matrix(1.4107783,0,0,1.4107783,-665.9504,3410.8826)"
           style="fill:#e2e2e2;fill-opacity:1"><path
             d="m 1061.5028,2938.222 c -68.72452,0.1911 -134.73182,26.8665 -184.29252,74.4777 l -80.92,173.5315 -31.015,66.512 -88.82899,190.4967 c 19.2946,72.2186 84.71249,122.4579 159.46399,122.465 67.3927,-0.6115 121.0353,-40.104 141.0446,-73.1727 9.9763,-16.4875 235.53482,-507.4166 235.53482,-507.4166 -44.4431,-30.5101 -97.0792,-46.8578 -150.9869,-46.8936 z"
             style="fill:#e2e2e2;fill-opacity:1;stroke:none;stroke-width:3.6367;stroke-linecap:round;stroke-linejoin:round;stroke-dasharray:none;paint-order:stroke markers fill"
             id="path3340"
             sodipodi:nodetypes="ccccccscc" /><path
             d="m 1332.1318,3204.232 a 165.07365,165.07365 0 0 0 -98.1339,-32.4817 165.07365,165.07365 0 0 0 -15.4667,1.7438 267.08921,267.08921 0 0 0 -128.3427,227.6628 267.08921,267.08921 0 0 0 1.5378,17.5656 165.07365,165.07365 0 0 0 37.1198,44.9331 267.08921,267.08921 0 0 0 203.3177,-258.3724 267.08921,267.08921 0 0 0 -0.033,-1.0512 z"
             style="fill:#e2e2e2;fill-opacity:1;stroke:none;stroke-width:3.6367;stroke-linecap:round;stroke-linejoin:round;stroke-dasharray:none;paint-order:stroke markers fill"
             id="path3341" /><path
             d="m 1468.5057,3179.9556 c -23.3992,0.344 -44.6834,13.6189 -55.2856,34.481 l -3.6367,7.7956 -65.4784,140.4176 -12.0856,25.9185 c -1.3136,4.2244 -2.1789,8.5752 -2.5819,12.9807 0.1146,24.9259 14.9032,47.4447 37.7307,57.4554 l 53.1158,-113.9059 21.3087,-45.6931 53.0092,-113.6824 c -8.1867,-3.7651 -17.0854,-5.7318 -26.0962,-5.7674 z"
             style="fill:#e2e2e2;fill-opacity:1;stroke:none;stroke-width:3.6367;stroke-linecap:round;stroke-linejoin:round;stroke-dasharray:none;paint-order:stroke markers fill"
             id="path3342" /></g><g
           id="g3345"
           transform="matrix(0.6865704,0,0,0.6865704,1322.9588,5458.4454)"
           style="fill:#e2e2e2;fill-opacity:1"><path
             d="m 1061.5028,2938.222 c -68.72452,0.1911 -134.73182,26.8665 -184.29252,74.4777 l -80.92,173.5315 -31.015,66.512 -88.82899,190.4967 c 19.2946,72.2186 84.71249,122.4579 159.46399,122.465 67.3927,-0.6115 121.0353,-40.104 141.0446,-73.1727 9.9763,-16.4875 235.53482,-507.4166 235.53482,-507.4166 -44.4431,-30.5101 -97.0792,-46.8578 -150.9869,-46.8936 z"
             style="fill:#e2e2e2;fill-opacity:1;stroke:none;stroke-width:3.6367;stroke-linecap:round;stroke-linejoin:round;stroke-dasharray:none;paint-order:stroke markers fill"
             id="path3343"
             sodipodi:nodetypes="ccccccscc" /><path
             d="m 1332.1318,3204.232 a 165.07365,165.07365 0 0 0 -98.1339,-32.4817 165.07365,165.07365 0 0 0 -15.4667,1.7438 267.08921,267.08921 0 0 0 -128.3427,227.6628 267.08921,267.08921 0 0 0 1.5378,17.5656 165.07365,165.07365 0 0 0 37.1198,44.9331 267.08921,267.08921 0 0 0 203.3177,-258.3724 267.08921,267.08921 0 0 0 -0.033,-1.0512 z"
             style="fill:#e2e2e2;fill-opacity:1;stroke:none;stroke-width:3.6367;stroke-linecap:round;stroke-linejoin:round;stroke-dasharray:none;paint-order:stroke markers fill"
             id="path3344" /><path
             d="m 1468.5057,3179.9556 c -23.3992,0.344 -44.6834,13.6189 -55.2856,34.481 l -3.6367,7.7956 -65.4784,140.4176 -12.0856,25.9185 c -1.3136,4.2244 -2.1789,8.5752 -2.5819,12.9807 0.1146,24.9259 14.9032,47.4447 37.7307,57.4554 l 53.1158,-113.9059 21.3087,-45.6931 53.0092,-113.6824 c -8.1867,-3.7651 -17.0854,-5.7318 -26.0962,-5.7674 z"
             style="fill:#e2e2e2;fill-opacity:1;stroke:none;stroke-width:3.6367;stroke-linecap:round;stroke-linejoin:round;stroke-dasharray:none;paint-order:stroke markers fill"
             id="path3345" /></g><g
           id="g3348"
           transform="matrix(0.42732019,0,0,0.42732019,2002.0911,4688.0238)"
           style="fill:#e2e2e2;fill-opacity:1"><path
             d="m 1009.5164,2938.222 c -68.72476,0.1911 -134.73206,26.8665 -184.29276,74.4777 l -80.92,173.5315 -31.015,66.512 -88.82899,190.4967 c 19.2946,72.2186 84.71249,122.4579 159.46399,122.465 67.3927,-0.6115 121.0353,-40.104 141.0446,-73.1727 9.9763,-16.4875 235.53506,-507.4166 235.53506,-507.4166 -44.4431,-30.5101 -97.0792,-46.8578 -150.9869,-46.8936 z"
             style="fill:#e2e2e2;fill-opacity:1;stroke:none;stroke-width:3.6367;stroke-linecap:round;stroke-linejoin:round;stroke-dasharray:none;paint-order:stroke markers fill"
             id="path3346"
             sodipodi:nodetypes="ccccccscc" /><path
             d="m 1332.1318,3204.232 a 165.07365,165.07365 0 0 0 -98.1339,-32.4817 165.07365,165.07365 0 0 0 -15.4667,1.7438 267.08921,267.08921 0 0 0 -128.3427,227.6628 267.08921,267.08921 0 0 0 1.5378,17.5656 165.07365,165.07365 0 0 0 37.1198,44.9331 267.08921,267.08921 0 0 0 203.3177,-258.3724 267.08921,267.08921 0 0 0 -0.033,-1.0512 z"
             style="fill:#e2e2e2;fill-opacity:1;stroke:none;stroke-width:3.6367;stroke-linecap:round;stroke-linejoin:round;stroke-dasharray:none;paint-order:stroke markers fill"
             id="path3347" /><path
             d="m 1507.4955,3179.9556 c -23.3992,0.344 -44.6834,13.6189 -55.2856,34.481 l -3.6367,7.7956 -65.4784,140.4176 -12.0856,25.9185 c -1.3136,4.2244 -2.1789,8.5752 -2.5819,12.9807 0.1146,24.9259 14.9032,47.4447 37.7307,57.4554 l 53.1158,-113.9059 21.3087,-45.6931 53.0092,-113.6824 c -8.1867,-3.7651 -17.0854,-5.7318 -26.0962,-5.7674 z"
             style="fill:#e2e2e2;fill-opacity:1;stroke:none;stroke-width:3.6367;stroke-linecap:round;stroke-linejoin:round;stroke-dasharray:none;paint-order:stroke markers fill"
             id="path3348" /></g></g><g
         id="g3457"
         transform="translate(1771.7825,-2541.6838)"
         clip-path="url(#clipPath3531)"
         style="fill:#e2e2e2;fill-opacity:1"><g
           id="g3423"
           transform="matrix(1.4374921,0,0,1.4374921,-304.28775,2332.6662)"
           style="fill:#e2e2e2;fill-opacity:1"><path
             d="m 1061.5028,2938.222 c -68.72452,0.1911 -134.73182,26.8665 -184.29252,74.4777 l -80.92,173.5315 -31.015,66.512 -88.82899,190.4967 c 19.2946,72.2186 84.71249,122.4579 159.46399,122.465 67.3927,-0.6115 121.0353,-40.104 141.0446,-73.1727 9.9763,-16.4875 235.53482,-507.4166 235.53482,-507.4166 -44.4431,-30.5101 -97.0792,-46.8578 -150.9869,-46.8936 z"
             style="fill:#e2e2e2;fill-opacity:1;stroke:none;stroke-width:3.6367;stroke-linecap:round;stroke-linejoin:round;stroke-dasharray:none;paint-order:stroke markers fill"
             id="path3421"
             sodipodi:nodetypes="ccccccscc" /><path
             d="m 1332.1318,3204.232 a 165.07365,165.07365 0 0 0 -98.1339,-32.4817 165.07365,165.07365 0 0 0 -15.4667,1.7438 267.08921,267.08921 0 0 0 -128.3427,227.6628 267.08921,267.08921 0 0 0 1.5378,17.5656 165.07365,165.07365 0 0 0 37.1198,44.9331 267.08921,267.08921 0 0 0 203.3177,-258.3724 267.08921,267.08921 0 0 0 -0.033,-1.0512 z"
             style="fill:#e2e2e2;fill-opacity:1;stroke:none;stroke-width:3.6367;stroke-linecap:round;stroke-linejoin:round;stroke-dasharray:none;paint-order:stroke markers fill"
             id="path3422" /><path
             d="m 1468.5057,3179.9556 c -23.3992,0.344 -44.6834,13.6189 -55.2856,34.481 l -3.6367,7.7956 -65.4784,140.4176 -12.0856,25.9185 c -1.3136,4.2244 -2.1789,8.5752 -2.5819,12.9807 0.1146,24.9259 14.9032,47.4447 37.7307,57.4554 l 53.1158,-113.9059 21.3087,-45.6931 53.0092,-113.6824 c -8.1867,-3.7651 -17.0854,-5.7318 -26.0962,-5.7674 z"
             style="fill:#e2e2e2;fill-opacity:1;stroke:none;stroke-width:3.6367;stroke-linecap:round;stroke-linejoin:round;stroke-dasharray:none;paint-order:stroke markers fill"
             id="path3423" /></g><g
           id="g3426"
           transform="matrix(1.1163022,0,0,1.0721069,803.69198,2891.1195)"
           style="fill:#e2e2e2;fill-opacity:1"><path
             d="m 1061.5028,2938.222 c -68.72452,0.1911 -134.73182,26.8665 -184.29252,74.4777 l -80.92,173.5315 -31.015,66.512 -88.82899,190.4967 c 19.2946,72.2186 84.71249,122.4579 159.46399,122.465 67.3927,-0.6115 121.0353,-40.104 141.0446,-73.1727 9.9763,-16.4875 235.53482,-507.4166 235.53482,-507.4166 -44.4431,-30.5101 -97.0792,-46.8578 -150.9869,-46.8936 z"
             style="fill:#e2e2e2;fill-opacity:1;stroke:none;stroke-width:3.6367;stroke-linecap:round;stroke-linejoin:round;stroke-dasharray:none;paint-order:stroke markers fill"
             id="path3424"
             sodipodi:nodetypes="ccccccscc" /><path
             d="m 1332.1318,3204.232 a 165.07365,165.07365 0 0 0 -98.1339,-32.4817 165.07365,165.07365 0 0 0 -15.4667,1.7438 267.08921,267.08921 0 0 0 -128.3427,227.6628 267.08921,267.08921 0 0 0 1.5378,17.5656 165.07365,165.07365 0 0 0 37.1198,44.9331 267.08921,267.08921 0 0 0 203.3177,-258.3724 267.08921,267.08921 0 0 0 -0.033,-1.0512 z"
             style="fill:#e2e2e2;fill-opacity:1;stroke:none;stroke-width:3.6367;stroke-linecap:round;stroke-linejoin:round;stroke-dasharray:none;paint-order:stroke markers fill"
             id="path3425" /><path
             d="m 1468.5057,3179.9556 c -23.3992,0.344 -44.6834,13.6189 -55.2856,34.481 l -3.6367,7.7956 -65.4784,140.4176 -12.0856,25.9185 c -1.3136,4.2244 -2.1789,8.5752 -2.5819,12.9807 0.1146,24.9259 14.9032,47.4447 37.7307,57.4554 l 53.1158,-113.9059 21.3087,-45.6931 53.0092,-113.6824 c -8.1867,-3.7651 -17.0854,-5.7318 -26.0962,-5.7674 z"
             style="fill:#e2e2e2;fill-opacity:1;stroke:none;stroke-width:3.6367;stroke-linecap:round;stroke-linejoin:round;stroke-dasharray:none;paint-order:stroke markers fill"
             id="path3426" /></g><g
           id="g3429"
           transform="matrix(0.24527062,0,0,0.24527062,1894.8395,7227.0277)"
           style="fill:#e2e2e2;fill-opacity:1"><path
             d="m 1009.5164,2938.222 c -68.72476,0.1911 -134.73206,26.8665 -184.29276,74.4777 l -80.92,173.5315 -31.015,66.512 -88.82899,190.4967 c 19.2946,72.2186 84.71249,122.4579 159.46399,122.465 67.3927,-0.6115 121.0353,-40.104 141.0446,-73.1727 9.9763,-16.4875 235.53506,-507.4166 235.53506,-507.4166 -44.4431,-30.5101 -97.0792,-46.8578 -150.9869,-46.8936 z"
             style="fill:#e2e2e2;fill-opacity:1;stroke:none;stroke-width:3.6367;stroke-linecap:round;stroke-linejoin:round;stroke-dasharray:none;paint-order:stroke markers fill"
             id="path3427"
             sodipodi:nodetypes="ccccccscc" /><path
             d="m 1332.1318,3204.232 a 165.07365,165.07365 0 0 0 -98.1339,-32.4817 165.07365,165.07365 0 0 0 -15.4667,1.7438 267.08921,267.08921 0 0 0 -128.3427,227.6628 267.08921,267.08921 0 0 0 1.5378,17.5656 165.07365,165.07365 0 0 0 37.1198,44.9331 267.08921,267.08921 0 0 0 203.3177,-258.3724 267.08921,267.08921 0 0 0 -0.033,-1.0512 z"
             style="fill:#e2e2e2;fill-opacity:1;stroke:none;stroke-width:3.6367;stroke-linecap:round;stroke-linejoin:round;stroke-dasharray:none;paint-order:stroke markers fill"
             id="path3428" /><path
             d="m 1507.4955,3179.9556 c -23.3992,0.344 -44.6834,13.6189 -55.2856,34.481 l -3.6367,7.7956 -65.4784,140.4176 -12.0856,25.9185 c -1.3136,4.2244 -2.1789,8.5752 -2.5819,12.9807 0.1146,24.9259 14.9032,47.4447 37.7307,57.4554 l 53.1158,-113.9059 21.3087,-45.6931 53.0092,-113.6824 c -8.1867,-3.7651 -17.0854,-5.7318 -26.0962,-5.7674 z"
             style="fill:#e2e2e2;fill-opacity:1;stroke:none;stroke-width:3.6367;stroke-linecap:round;stroke-linejoin:round;stroke-dasharray:none;paint-order:stroke markers fill"
             id="path3429" /></g><g
           id="g3432"
           transform="matrix(1.225088,0,0,1.225088,-207.05834,2191.3398)"
           style="fill:#e2e2e2;fill-opacity:1"><path
             d="m 1061.5028,2938.222 c -68.72452,0.1911 -134.73182,26.8665 -184.29252,74.4777 l -80.92,173.5315 -31.015,66.512 -88.82899,190.4967 c 19.2946,72.2186 84.71249,122.4579 159.46399,122.465 67.3927,-0.6115 121.0353,-40.104 141.0446,-73.1727 9.9763,-16.4875 235.53482,-507.4166 235.53482,-507.4166 -44.4431,-30.5101 -97.0792,-46.8578 -150.9869,-46.8936 z"
             style="fill:#e2e2e2;fill-opacity:1;stroke:none;stroke-width:3.6367;stroke-linecap:round;stroke-linejoin:round;stroke-dasharray:none;paint-order:stroke markers fill"
             id="path3430"
             sodipodi:nodetypes="ccccccscc" /><path
             d="m 1332.1318,3204.232 a 165.07365,165.07365 0 0 0 -98.1339,-32.4817 165.07365,165.07365 0 0 0 -15.4667,1.7438 267.08921,267.08921 0 0 0 -128.3427,227.6628 267.08921,267.08921 0 0 0 1.5378,17.5656 165.07365,165.07365 0 0 0 37.1198,44.9331 267.08921,267.08921 0 0 0 203.3177,-258.3724 267.08921,267.08921 0 0 0 -0.033,-1.0512 z"
             style="fill:#e2e2e2;fill-opacity:1;stroke:none;stroke-width:3.6367;stroke-linecap:round;stroke-linejoin:round;stroke-dasharray:none;paint-order:stroke markers fill"
             id="path3431" /><path
             d="m 1468.5057,3179.9556 c -23.3992,0.344 -44.6834,13.6189 -55.2856,34.481 l -3.6367,7.7956 -65.4784,140.4176 -12.0856,25.9185 c -1.3136,4.2244 -2.1789,8.5752 -2.5819,12.9807 0.1146,24.9259 14.9032,47.4447 37.7307,57.4554 l 53.1158,-113.9059 21.3087,-45.6931 53.0092,-113.6824 c -8.1867,-3.7651 -17.0854,-5.7318 -26.0962,-5.7674 z"
             style="fill:#e2e2e2;fill-opacity:1;stroke:none;stroke-width:3.6367;stroke-linecap:round;stroke-linejoin:round;stroke-dasharray:none;paint-order:stroke markers fill"
             id="path3432" /></g><g
           id="g3435"
           transform="matrix(0.95115448,0,0,0.95115448,733.69033,5194.2702)"
           style="fill:#e2e2e2;fill-opacity:1"><path
             d="m 1061.5028,2938.222 c -68.72452,0.1911 -134.73182,26.8665 -184.29252,74.4777 l -80.92,173.5315 -31.015,66.512 -88.82899,190.4967 c 19.2946,72.2186 84.71249,122.4579 159.46399,122.465 67.3927,-0.6115 121.0353,-40.104 141.0446,-73.1727 9.9763,-16.4875 235.53482,-507.4166 235.53482,-507.4166 -44.4431,-30.5101 -97.0792,-46.8578 -150.9869,-46.8936 z"
             style="fill:#e2e2e2;fill-opacity:1;stroke:none;stroke-width:3.6367;stroke-linecap:round;stroke-linejoin:round;stroke-dasharray:none;paint-order:stroke markers fill"
             id="path3433"
             sodipodi:nodetypes="ccccccscc" /><path
             d="m 1332.1318,3204.232 a 165.07365,165.07365 0 0 0 -98.1339,-32.4817 165.07365,165.07365 0 0 0 -15.4667,1.7438 267.08921,267.08921 0 0 0 -128.3427,227.6628 267.08921,267.08921 0 0 0 1.5378,17.5656 165.07365,165.07365 0 0 0 37.1198,44.9331 267.08921,267.08921 0 0 0 203.3177,-258.3724 267.08921,267.08921 0 0 0 -0.033,-1.0512 z"
             style="fill:#e2e2e2;fill-opacity:1;stroke:none;stroke-width:3.6367;stroke-linecap:round;stroke-linejoin:round;stroke-dasharray:none;paint-order:stroke markers fill"
             id="path3434" /><path
             d="m 1468.5057,3179.9556 c -23.3992,0.344 -44.6834,13.6189 -55.2856,34.481 l -3.6367,7.7956 -65.4784,140.4176 -12.0856,25.9185 c -1.3136,4.2244 -2.1789,8.5752 -2.5819,12.9807 0.1146,24.9259 14.9032,47.4447 37.7307,57.4554 l 53.1158,-113.9059 21.3087,-45.6931 53.0092,-113.6824 c -8.1867,-3.7651 -17.0854,-5.7318 -26.0962,-5.7674 z"
             style="fill:#e2e2e2;fill-opacity:1;stroke:none;stroke-width:3.6367;stroke-linecap:round;stroke-linejoin:round;stroke-dasharray:none;paint-order:stroke markers fill"
             id="path3435" /></g><g
           id="g3438"
           transform="matrix(0.32424572,0,0,0.32424572,2088.84,6402.496)"
           style="fill:#e2e2e2;fill-opacity:1"><path
             d="m 1061.5028,2938.222 c -68.72452,0.1911 -134.73182,26.8665 -184.29252,74.4777 l -80.92,173.5315 -31.015,66.512 -88.82899,190.4967 c 19.2946,72.2186 84.71249,122.4579 159.46399,122.465 67.3927,-0.6115 121.0353,-40.104 141.0446,-73.1727 9.9763,-16.4875 235.53482,-507.4166 235.53482,-507.4166 -44.4431,-30.5101 -97.0792,-46.8578 -150.9869,-46.8936 z"
             style="fill:#e2e2e2;fill-opacity:1;stroke:none;stroke-width:3.6367;stroke-linecap:round;stroke-linejoin:round;stroke-dasharray:none;paint-order:stroke markers fill"
             id="path3436"
             sodipodi:nodetypes="ccccccscc" /><path
             d="m 1332.1318,3204.232 a 165.07365,165.07365 0 0 0 -98.1339,-32.4817 165.07365,165.07365 0 0 0 -15.4667,1.7438 267.08921,267.08921 0 0 0 -128.3427,227.6628 267.08921,267.08921 0 0 0 1.5378,17.5656 165.07365,165.07365 0 0 0 37.1198,44.9331 267.08921,267.08921 0 0 0 203.3177,-258.3724 267.08921,267.08921 0 0 0 -0.033,-1.0512 z"
             style="fill:#e2e2e2;fill-opacity:1;stroke:none;stroke-width:3.6367;stroke-linecap:round;stroke-linejoin:round;stroke-dasharray:none;paint-order:stroke markers fill"
             id="path3437" /><path
             d="m 1468.5057,3179.9556 c -23.3992,0.344 -44.6834,13.6189 -55.2856,34.481 l -3.6367,7.7956 -65.4784,140.4176 -12.0856,25.9185 c -1.3136,4.2244 -2.1789,8.5752 -2.5819,12.9807 0.1146,24.9259 14.9032,47.4447 37.7307,57.4554 l 53.1158,-113.9059 21.3087,-45.6931 53.0092,-113.6824 c -8.1867,-3.7651 -17.0854,-5.7318 -26.0962,-5.7674 z"
             style="fill:#e2e2e2;fill-opacity:1;stroke:none;stroke-width:3.6367;stroke-linecap:round;stroke-linejoin:round;stroke-dasharray:none;paint-order:stroke markers fill"
             id="path3438" /></g><g
           id="g3441"
           transform="matrix(0.6682082,0,0,0.6682082,779.1125,5414.0624)"
           style="fill:#e2e2e2;fill-opacity:1"><path
             d="m 1061.5028,2938.222 c -68.72452,0.1911 -134.73182,26.8665 -184.29252,74.4777 l -80.92,173.5315 -31.015,66.512 -88.82899,190.4967 c 19.2946,72.2186 84.71249,122.4579 159.46399,122.465 67.3927,-0.6115 121.0353,-40.104 141.0446,-73.1727 9.9763,-16.4875 235.53482,-507.4166 235.53482,-507.4166 -44.4431,-30.5101 -97.0792,-46.8578 -150.9869,-46.8936 z"
             style="fill:#e2e2e2;fill-opacity:1;stroke:none;stroke-width:3.6367;stroke-linecap:round;stroke-linejoin:round;stroke-dasharray:none;paint-order:stroke markers fill"
             id="path3439"
             sodipodi:nodetypes="ccccccscc" /><path
             d="m 1332.1318,3204.232 a 165.07365,165.07365 0 0 0 -98.1339,-32.4817 165.07365,165.07365 0 0 0 -15.4667,1.7438 267.08921,267.08921 0 0 0 -128.3427,227.6628 267.08921,267.08921 0 0 0 1.5378,17.5656 165.07365,165.07365 0 0 0 37.1198,44.9331 267.08921,267.08921 0 0 0 203.3177,-258.3724 267.08921,267.08921 0 0 0 -0.033,-1.0512 z"
             style="fill:#e2e2e2;fill-opacity:1;stroke:none;stroke-width:3.6367;stroke-linecap:round;stroke-linejoin:round;stroke-dasharray:none;paint-order:stroke markers fill"
             id="path3440" /><path
             d="m 1468.5057,3179.9556 c -23.3992,0.344 -44.6834,13.6189 -55.2856,34.481 l -3.6367,7.7956 -65.4784,140.4176 -12.0856,25.9185 c -1.3136,4.2244 -2.1789,8.5752 -2.5819,12.9807 0.1146,24.9259 14.9032,47.4447 37.7307,57.4554 l 53.1158,-113.9059 21.3087,-45.6931 53.0092,-113.6824 c -8.1867,-3.7651 -17.0854,-5.7318 -26.0962,-5.7674 z"
             style="fill:#e2e2e2;fill-opacity:1;stroke:none;stroke-width:3.6367;stroke-linecap:round;stroke-linejoin:round;stroke-dasharray:none;paint-order:stroke markers fill"
             id="path3441" /></g><g
           id="g3444"
           transform="matrix(0.958174,0,0,0.958174,1210.9446,3932.2376)"
           style="fill:#e2e2e2;fill-opacity:1"><path
             d="m 1061.5028,2938.222 c -68.72452,0.1911 -134.73182,26.8665 -184.29252,74.4777 l -80.92,173.5315 -31.015,66.512 -88.82899,190.4967 c 19.2946,72.2186 84.71249,122.4579 159.46399,122.465 67.3927,-0.6115 121.0353,-40.104 141.0446,-73.1727 9.9763,-16.4875 235.53482,-507.4166 235.53482,-507.4166 -44.4431,-30.5101 -97.0792,-46.8578 -150.9869,-46.8936 z"
             style="fill:#e2e2e2;fill-opacity:1;stroke:none;stroke-width:3.6367;stroke-linecap:round;stroke-linejoin:round;stroke-dasharray:none;paint-order:stroke markers fill"
             id="path3442"
             sodipodi:nodetypes="ccccccscc" /><path
             d="m 1332.1318,3204.232 a 165.07365,165.07365 0 0 0 -98.1339,-32.4817 165.07365,165.07365 0 0 0 -15.4667,1.7438 267.08921,267.08921 0 0 0 -128.3427,227.6628 267.08921,267.08921 0 0 0 1.5378,17.5656 165.07365,165.07365 0 0 0 37.1198,44.9331 267.08921,267.08921 0 0 0 203.3177,-258.3724 267.08921,267.08921 0 0 0 -0.033,-1.0512 z"
             style="fill:#e2e2e2;fill-opacity:1;stroke:none;stroke-width:3.6367;stroke-linecap:round;stroke-linejoin:round;stroke-dasharray:none;paint-order:stroke markers fill"
             id="path3443" /><path
             d="m 1468.5057,3179.9556 c -23.3992,0.344 -44.6834,13.6189 -55.2856,34.481 l -3.6367,7.7956 -65.4784,140.4176 -12.0856,25.9185 c -1.3136,4.2244 -2.1789,8.5752 -2.5819,12.9807 0.1146,24.9259 14.9032,47.4447 37.7307,57.4554 l 53.1158,-113.9059 21.3087,-45.6931 53.0092,-113.6824 c -8.1867,-3.7651 -17.0854,-5.7318 -26.0962,-5.7674 z"
             style="fill:#e2e2e2;fill-opacity:1;stroke:none;stroke-width:3.6367;stroke-linecap:round;stroke-linejoin:round;stroke-dasharray:none;paint-order:stroke markers fill"
             id="path3444" /></g><g
           id="g3447"
           transform="matrix(0.31209844,0,0,0.31209844,2286.2945,5760.867)"
           style="fill:#e2e2e2;fill-opacity:1"><path
             d="m 1061.5028,2938.222 c -68.72452,0.1911 -134.73182,26.8665 -184.29252,74.4777 l -80.92,173.5315 -31.015,66.512 -88.82899,190.4967 c 19.2946,72.2186 84.71249,122.4579 159.46399,122.465 67.3927,-0.6115 121.0353,-40.104 141.0446,-73.1727 9.9763,-16.4875 235.53482,-507.4166 235.53482,-507.4166 -44.4431,-30.5101 -97.0792,-46.8578 -150.9869,-46.8936 z"
             style="fill:#e2e2e2;fill-opacity:1;stroke:none;stroke-width:3.6367;stroke-linecap:round;stroke-linejoin:round;stroke-dasharray:none;paint-order:stroke markers fill"
             id="path3445"
             sodipodi:nodetypes="ccccccscc" /><path
             d="m 1332.1318,3204.232 a 165.07365,165.07365 0 0 0 -98.1339,-32.4817 165.07365,165.07365 0 0 0 -15.4667,1.7438 267.08921,267.08921 0 0 0 -128.3427,227.6628 267.08921,267.08921 0 0 0 1.5378,17.5656 165.07365,165.07365 0 0 0 37.1198,44.9331 267.08921,267.08921 0 0 0 203.3177,-258.3724 267.08921,267.08921 0 0 0 -0.033,-1.0512 z"
             style="fill:#e2e2e2;fill-opacity:1;stroke:none;stroke-width:3.6367;stroke-linecap:round;stroke-linejoin:round;stroke-dasharray:none;paint-order:stroke markers fill"
             id="path3446" /><path
             d="m 1468.5057,3179.9556 c -23.3992,0.344 -44.6834,13.6189 -55.2856,34.481 l -3.6367,7.7956 -65.4784,140.4176 -12.0856,25.9185 c -1.3136,4.2244 -2.1789,8.5752 -2.5819,12.9807 0.1146,24.9259 14.9032,47.4447 37.7307,57.4554 l 53.1158,-113.9059 21.3087,-45.6931 53.0092,-113.6824 c -8.1867,-3.7651 -17.0854,-5.7318 -26.0962,-5.7674 z"
             style="fill:#e2e2e2;fill-opacity:1;stroke:none;stroke-width:3.6367;stroke-linecap:round;stroke-linejoin:round;stroke-dasharray:none;paint-order:stroke markers fill"
             id="path3447" /></g><g
           id="g3450"
           transform="matrix(1.4107783,0,0,1.4107783,-665.9504,3410.8826)"
           style="fill:#e2e2e2;fill-opacity:1"><path
             d="m 1061.5028,2938.222 c -68.72452,0.1911 -134.73182,26.8665 -184.29252,74.4777 l -80.92,173.5315 -31.015,66.512 -88.82899,190.4967 c 19.2946,72.2186 84.71249,122.4579 159.46399,122.465 67.3927,-0.6115 121.0353,-40.104 141.0446,-73.1727 9.9763,-16.4875 235.53482,-507.4166 235.53482,-507.4166 -44.4431,-30.5101 -97.0792,-46.8578 -150.9869,-46.8936 z"
             style="fill:#e2e2e2;fill-opacity:1;stroke:none;stroke-width:3.6367;stroke-linecap:round;stroke-linejoin:round;stroke-dasharray:none;paint-order:stroke markers fill"
             id="path3448"
             sodipodi:nodetypes="ccccccscc" /><path
             d="m 1332.1318,3204.232 a 165.07365,165.07365 0 0 0 -98.1339,-32.4817 165.07365,165.07365 0 0 0 -15.4667,1.7438 267.08921,267.08921 0 0 0 -128.3427,227.6628 267.08921,267.08921 0 0 0 1.5378,17.5656 165.07365,165.07365 0 0 0 37.1198,44.9331 267.08921,267.08921 0 0 0 203.3177,-258.3724 267.08921,267.08921 0 0 0 -0.033,-1.0512 z"
             style="fill:#e2e2e2;fill-opacity:1;stroke:none;stroke-width:3.6367;stroke-linecap:round;stroke-linejoin:round;stroke-dasharray:none;paint-order:stroke markers fill"
             id="path3449" /><path
             d="m 1468.5057,3179.9556 c -23.3992,0.344 -44.6834,13.6189 -55.2856,34.481 l -3.6367,7.7956 -65.4784,140.4176 -12.0856,25.9185 c -1.3136,4.2244 -2.1789,8.5752 -2.5819,12.9807 0.1146,24.9259 14.9032,47.4447 37.7307,57.4554 l 53.1158,-113.9059 21.3087,-45.6931 53.0092,-113.6824 c -8.1867,-3.7651 -17.0854,-5.7318 -26.0962,-5.7674 z"
             style="fill:#e2e2e2;fill-opacity:1;stroke:none;stroke-width:3.6367;stroke-linecap:round;stroke-linejoin:round;stroke-dasharray:none;paint-order:stroke markers fill"
             id="path3450" /></g><g
           id="g3453"
           transform="matrix(0.6865704,0,0,0.6865704,1322.9588,5458.4454)"
           style="fill:#e2e2e2;fill-opacity:1"><path
             d="m 1061.5028,2938.222 c -68.72452,0.1911 -134.73182,26.8665 -184.29252,74.4777 l -80.92,173.5315 -31.015,66.512 -88.82899,190.4967 c 19.2946,72.2186 84.71249,122.4579 159.46399,122.465 67.3927,-0.6115 121.0353,-40.104 141.0446,-73.1727 9.9763,-16.4875 235.53482,-507.4166 235.53482,-507.4166 -44.4431,-30.5101 -97.0792,-46.8578 -150.9869,-46.8936 z"
             style="fill:#e2e2e2;fill-opacity:1;stroke:none;stroke-width:3.6367;stroke-linecap:round;stroke-linejoin:round;stroke-dasharray:none;paint-order:stroke markers fill"
             id="path3451"
             sodipodi:nodetypes="ccccccscc" /><path
             d="m 1332.1318,3204.232 a 165.07365,165.07365 0 0 0 -98.1339,-32.4817 165.07365,165.07365 0 0 0 -15.4667,1.7438 267.08921,267.08921 0 0 0 -128.3427,227.6628 267.08921,267.08921 0 0 0 1.5378,17.5656 165.07365,165.07365 0 0 0 37.1198,44.9331 267.08921,267.08921 0 0 0 203.3177,-258.3724 267.08921,267.08921 0 0 0 -0.033,-1.0512 z"
             style="fill:#e2e2e2;fill-opacity:1;stroke:none;stroke-width:3.6367;stroke-linecap:round;stroke-linejoin:round;stroke-dasharray:none;paint-order:stroke markers fill"
             id="path3452" /><path
             d="m 1468.5057,3179.9556 c -23.3992,0.344 -44.6834,13.6189 -55.2856,34.481 l -3.6367,7.7956 -65.4784,140.4176 -12.0856,25.9185 c -1.3136,4.2244 -2.1789,8.5752 -2.5819,12.9807 0.1146,24.9259 14.9032,47.4447 37.7307,57.4554 l 53.1158,-113.9059 21.3087,-45.6931 53.0092,-113.6824 c -8.1867,-3.7651 -17.0854,-5.7318 -26.0962,-5.7674 z"
             style="fill:#e2e2e2;fill-opacity:1;stroke:none;stroke-width:3.6367;stroke-linecap:round;stroke-linejoin:round;stroke-dasharray:none;paint-order:stroke markers fill"
             id="path3453" /></g><g
           id="g3456"
           transform="matrix(0.42732019,0,0,0.42732019,2002.0911,4688.0238)"
           style="fill:#e2e2e2;fill-opacity:1"><path
             d="m 1009.5164,2938.222 c -68.72476,0.1911 -134.73206,26.8665 -184.29276,74.4777 l -80.92,173.5315 -31.015,66.512 -88.82899,190.4967 c 19.2946,72.2186 84.71249,122.4579 159.46399,122.465 67.3927,-0.6115 121.0353,-40.104 141.0446,-73.1727 9.9763,-16.4875 235.53506,-507.4166 235.53506,-507.4166 -44.4431,-30.5101 -97.0792,-46.8578 -150.9869,-46.8936 z"
             style="fill:#e2e2e2;fill-opacity:1;stroke:none;stroke-width:3.6367;stroke-linecap:round;stroke-linejoin:round;stroke-dasharray:none;paint-order:stroke markers fill"
             id="path3454"
             sodipodi:nodetypes="ccccccscc" /><path
             d="m 1332.1318,3204.232 a 165.07365,165.07365 0 0 0 -98.1339,-32.4817 165.07365,165.07365 0 0 0 -15.4667,1.7438 267.08921,267.08921 0 0 0 -128.3427,227.6628 267.08921,267.08921 0 0 0 1.5378,17.5656 165.07365,165.07365 0 0 0 37.1198,44.9331 267.08921,267.08921 0 0 0 203.3177,-258.3724 267.08921,267.08921 0 0 0 -0.033,-1.0512 z"
             style="fill:#e2e2e2;fill-opacity:1;stroke:none;stroke-width:3.6367;stroke-linecap:round;stroke-linejoin:round;stroke-dasharray:none;paint-order:stroke markers fill"
             id="path3455" /><path
             d="m 1507.4955,3179.9556 c -23.3992,0.344 -44.6834,13.6189 -55.2856,34.481 l -3.6367,7.7956 -65.4784,140.4176 -12.0856,25.9185 c -1.3136,4.2244 -2.1789,8.5752 -2.5819,12.9807 0.1146,24.9259 14.9032,47.4447 37.7307,57.4554 l 53.1158,-113.9059 21.3087,-45.6931 53.0092,-113.6824 c -8.1867,-3.7651 -17.0854,-5.7318 -26.0962,-5.7674 z"
             style="fill:#e2e2e2;fill-opacity:1;stroke:none;stroke-width:3.6367;stroke-linecap:round;stroke-linejoin:round;stroke-dasharray:none;paint-order:stroke markers fill"
             id="path3456" /></g></g><g
         id="g3493"
         transform="translate(-179.6977,19.03895)"
         clip-path="url(#clipPath3530)"
         style="fill:#e2e2e2;fill-opacity:1"><g
           id="g3459"
           transform="matrix(1.4374921,0,0,1.4374921,-304.28775,2332.6662)"
           style="fill:#e2e2e2;fill-opacity:1"><path
             d="m 1061.5028,2938.222 c -68.72452,0.1911 -134.73182,26.8665 -184.29252,74.4777 l -80.92,173.5315 -31.015,66.512 -88.82899,190.4967 c 19.2946,72.2186 84.71249,122.4579 159.46399,122.465 67.3927,-0.6115 121.0353,-40.104 141.0446,-73.1727 9.9763,-16.4875 235.53482,-507.4166 235.53482,-507.4166 -44.4431,-30.5101 -97.0792,-46.8578 -150.9869,-46.8936 z"
             style="fill:#e2e2e2;fill-opacity:1;stroke:none;stroke-width:3.6367;stroke-linecap:round;stroke-linejoin:round;stroke-dasharray:none;paint-order:stroke markers fill"
             id="path3457"
             sodipodi:nodetypes="ccccccscc" /><path
             d="m 1332.1318,3204.232 a 165.07365,165.07365 0 0 0 -98.1339,-32.4817 165.07365,165.07365 0 0 0 -15.4667,1.7438 267.08921,267.08921 0 0 0 -128.3427,227.6628 267.08921,267.08921 0 0 0 1.5378,17.5656 165.07365,165.07365 0 0 0 37.1198,44.9331 267.08921,267.08921 0 0 0 203.3177,-258.3724 267.08921,267.08921 0 0 0 -0.033,-1.0512 z"
             style="fill:#e2e2e2;fill-opacity:1;stroke:none;stroke-width:3.6367;stroke-linecap:round;stroke-linejoin:round;stroke-dasharray:none;paint-order:stroke markers fill"
             id="path3458" /><path
             d="m 1468.5057,3179.9556 c -23.3992,0.344 -44.6834,13.6189 -55.2856,34.481 l -3.6367,7.7956 -65.4784,140.4176 -12.0856,25.9185 c -1.3136,4.2244 -2.1789,8.5752 -2.5819,12.9807 0.1146,24.9259 14.9032,47.4447 37.7307,57.4554 l 53.1158,-113.9059 21.3087,-45.6931 53.0092,-113.6824 c -8.1867,-3.7651 -17.0854,-5.7318 -26.0962,-5.7674 z"
             style="fill:#e2e2e2;fill-opacity:1;stroke:none;stroke-width:3.6367;stroke-linecap:round;stroke-linejoin:round;stroke-dasharray:none;paint-order:stroke markers fill"
             id="path3459" /></g><g
           id="g3462"
           transform="matrix(1.1163022,0,0,1.0721069,803.69198,2891.1195)"
           style="fill:#e2e2e2;fill-opacity:1"><path
             d="m 1061.5028,2938.222 c -68.72452,0.1911 -134.73182,26.8665 -184.29252,74.4777 l -80.92,173.5315 -31.015,66.512 -88.82899,190.4967 c 19.2946,72.2186 84.71249,122.4579 159.46399,122.465 67.3927,-0.6115 121.0353,-40.104 141.0446,-73.1727 9.9763,-16.4875 235.53482,-507.4166 235.53482,-507.4166 -44.4431,-30.5101 -97.0792,-46.8578 -150.9869,-46.8936 z"
             style="fill:#e2e2e2;fill-opacity:1;stroke:none;stroke-width:3.6367;stroke-linecap:round;stroke-linejoin:round;stroke-dasharray:none;paint-order:stroke markers fill"
             id="path3460"
             sodipodi:nodetypes="ccccccscc" /><path
             d="m 1332.1318,3204.232 a 165.07365,165.07365 0 0 0 -98.1339,-32.4817 165.07365,165.07365 0 0 0 -15.4667,1.7438 267.08921,267.08921 0 0 0 -128.3427,227.6628 267.08921,267.08921 0 0 0 1.5378,17.5656 165.07365,165.07365 0 0 0 37.1198,44.9331 267.08921,267.08921 0 0 0 203.3177,-258.3724 267.08921,267.08921 0 0 0 -0.033,-1.0512 z"
             style="fill:#e2e2e2;fill-opacity:1;stroke:none;stroke-width:3.6367;stroke-linecap:round;stroke-linejoin:round;stroke-dasharray:none;paint-order:stroke markers fill"
             id="path3461" /><path
             d="m 1468.5057,3179.9556 c -23.3992,0.344 -44.6834,13.6189 -55.2856,34.481 l -3.6367,7.7956 -65.4784,140.4176 -12.0856,25.9185 c -1.3136,4.2244 -2.1789,8.5752 -2.5819,12.9807 0.1146,24.9259 14.9032,47.4447 37.7307,57.4554 l 53.1158,-113.9059 21.3087,-45.6931 53.0092,-113.6824 c -8.1867,-3.7651 -17.0854,-5.7318 -26.0962,-5.7674 z"
             style="fill:#e2e2e2;fill-opacity:1;stroke:none;stroke-width:3.6367;stroke-linecap:round;stroke-linejoin:round;stroke-dasharray:none;paint-order:stroke markers fill"
             id="path3462" /></g><g
           id="g3465"
           transform="matrix(0.24527062,0,0,0.24527062,1894.8395,7227.0277)"
           style="fill:#e2e2e2;fill-opacity:1"><path
             d="m 1009.5164,2938.222 c -68.72476,0.1911 -134.73206,26.8665 -184.29276,74.4777 l -80.92,173.5315 -31.015,66.512 -88.82899,190.4967 c 19.2946,72.2186 84.71249,122.4579 159.46399,122.465 67.3927,-0.6115 121.0353,-40.104 141.0446,-73.1727 9.9763,-16.4875 235.53506,-507.4166 235.53506,-507.4166 -44.4431,-30.5101 -97.0792,-46.8578 -150.9869,-46.8936 z"
             style="fill:#e2e2e2;fill-opacity:1;stroke:none;stroke-width:3.6367;stroke-linecap:round;stroke-linejoin:round;stroke-dasharray:none;paint-order:stroke markers fill"
             id="path3463"
             sodipodi:nodetypes="ccccccscc" /><path
             d="m 1332.1318,3204.232 a 165.07365,165.07365 0 0 0 -98.1339,-32.4817 165.07365,165.07365 0 0 0 -15.4667,1.7438 267.08921,267.08921 0 0 0 -128.3427,227.6628 267.08921,267.08921 0 0 0 1.5378,17.5656 165.07365,165.07365 0 0 0 37.1198,44.9331 267.08921,267.08921 0 0 0 203.3177,-258.3724 267.08921,267.08921 0 0 0 -0.033,-1.0512 z"
             style="fill:#e2e2e2;fill-opacity:1;stroke:none;stroke-width:3.6367;stroke-linecap:round;stroke-linejoin:round;stroke-dasharray:none;paint-order:stroke markers fill"
             id="path3464" /><path
             d="m 1507.4955,3179.9556 c -23.3992,0.344 -44.6834,13.6189 -55.2856,34.481 l -3.6367,7.7956 -65.4784,140.4176 -12.0856,25.9185 c -1.3136,4.2244 -2.1789,8.5752 -2.5819,12.9807 0.1146,24.9259 14.9032,47.4447 37.7307,57.4554 l 53.1158,-113.9059 21.3087,-45.6931 53.0092,-113.6824 c -8.1867,-3.7651 -17.0854,-5.7318 -26.0962,-5.7674 z"
             style="fill:#e2e2e2;fill-opacity:1;stroke:none;stroke-width:3.6367;stroke-linecap:round;stroke-linejoin:round;stroke-dasharray:none;paint-order:stroke markers fill"
             id="path3465" /></g><g
           id="g3468"
           transform="matrix(1.225088,0,0,1.225088,-207.05834,2191.3398)"
           style="fill:#e2e2e2;fill-opacity:1"><path
             d="m 1061.5028,2938.222 c -68.72452,0.1911 -134.73182,26.8665 -184.29252,74.4777 l -80.92,173.5315 -31.015,66.512 -88.82899,190.4967 c 19.2946,72.2186 84.71249,122.4579 159.46399,122.465 67.3927,-0.6115 121.0353,-40.104 141.0446,-73.1727 9.9763,-16.4875 235.53482,-507.4166 235.53482,-507.4166 -44.4431,-30.5101 -97.0792,-46.8578 -150.9869,-46.8936 z"
             style="fill:#e2e2e2;fill-opacity:1;stroke:none;stroke-width:3.6367;stroke-linecap:round;stroke-linejoin:round;stroke-dasharray:none;paint-order:stroke markers fill"
             id="path3466"
             sodipodi:nodetypes="ccccccscc" /><path
             d="m 1332.1318,3204.232 a 165.07365,165.07365 0 0 0 -98.1339,-32.4817 165.07365,165.07365 0 0 0 -15.4667,1.7438 267.08921,267.08921 0 0 0 -128.3427,227.6628 267.08921,267.08921 0 0 0 1.5378,17.5656 165.07365,165.07365 0 0 0 37.1198,44.9331 267.08921,267.08921 0 0 0 203.3177,-258.3724 267.08921,267.08921 0 0 0 -0.033,-1.0512 z"
             style="fill:#e2e2e2;fill-opacity:1;stroke:none;stroke-width:3.6367;stroke-linecap:round;stroke-linejoin:round;stroke-dasharray:none;paint-order:stroke markers fill"
             id="path3467" /><path
             d="m 1468.5057,3179.9556 c -23.3992,0.344 -44.6834,13.6189 -55.2856,34.481 l -3.6367,7.7956 -65.4784,140.4176 -12.0856,25.9185 c -1.3136,4.2244 -2.1789,8.5752 -2.5819,12.9807 0.1146,24.9259 14.9032,47.4447 37.7307,57.4554 l 53.1158,-113.9059 21.3087,-45.6931 53.0092,-113.6824 c -8.1867,-3.7651 -17.0854,-5.7318 -26.0962,-5.7674 z"
             style="fill:#e2e2e2;fill-opacity:1;stroke:none;stroke-width:3.6367;stroke-linecap:round;stroke-linejoin:round;stroke-dasharray:none;paint-order:stroke markers fill"
             id="path3468" /></g><g
           id="g3471"
           transform="matrix(0.95115448,0,0,0.95115448,733.69033,5194.2702)"
           style="fill:#e2e2e2;fill-opacity:1"><path
             d="m 1061.5028,2938.222 c -68.72452,0.1911 -134.73182,26.8665 -184.29252,74.4777 l -80.92,173.5315 -31.015,66.512 -88.82899,190.4967 c 19.2946,72.2186 84.71249,122.4579 159.46399,122.465 67.3927,-0.6115 121.0353,-40.104 141.0446,-73.1727 9.9763,-16.4875 235.53482,-507.4166 235.53482,-507.4166 -44.4431,-30.5101 -97.0792,-46.8578 -150.9869,-46.8936 z"
             style="fill:#e2e2e2;fill-opacity:1;stroke:none;stroke-width:3.6367;stroke-linecap:round;stroke-linejoin:round;stroke-dasharray:none;paint-order:stroke markers fill"
             id="path3469"
             sodipodi:nodetypes="ccccccscc" /><path
             d="m 1332.1318,3204.232 a 165.07365,165.07365 0 0 0 -98.1339,-32.4817 165.07365,165.07365 0 0 0 -15.4667,1.7438 267.08921,267.08921 0 0 0 -128.3427,227.6628 267.08921,267.08921 0 0 0 1.5378,17.5656 165.07365,165.07365 0 0 0 37.1198,44.9331 267.08921,267.08921 0 0 0 203.3177,-258.3724 267.08921,267.08921 0 0 0 -0.033,-1.0512 z"
             style="fill:#e2e2e2;fill-opacity:1;stroke:none;stroke-width:3.6367;stroke-linecap:round;stroke-linejoin:round;stroke-dasharray:none;paint-order:stroke markers fill"
             id="path3470" /><path
             d="m 1468.5057,3179.9556 c -23.3992,0.344 -44.6834,13.6189 -55.2856,34.481 l -3.6367,7.7956 -65.4784,140.4176 -12.0856,25.9185 c -1.3136,4.2244 -2.1789,8.5752 -2.5819,12.9807 0.1146,24.9259 14.9032,47.4447 37.7307,57.4554 l 53.1158,-113.9059 21.3087,-45.6931 53.0092,-113.6824 c -8.1867,-3.7651 -17.0854,-5.7318 -26.0962,-5.7674 z"
             style="fill:#e2e2e2;fill-opacity:1;stroke:none;stroke-width:3.6367;stroke-linecap:round;stroke-linejoin:round;stroke-dasharray:none;paint-order:stroke markers fill"
             id="path3471" /></g><g
           id="g3474"
           transform="matrix(0.32424572,0,0,0.32424572,2088.84,6402.496)"
           style="fill:#e2e2e2;fill-opacity:1"><path
             d="m 1061.5028,2938.222 c -68.72452,0.1911 -134.73182,26.8665 -184.29252,74.4777 l -80.92,173.5315 -31.015,66.512 -88.82899,190.4967 c 19.2946,72.2186 84.71249,122.4579 159.46399,122.465 67.3927,-0.6115 121.0353,-40.104 141.0446,-73.1727 9.9763,-16.4875 235.53482,-507.4166 235.53482,-507.4166 -44.4431,-30.5101 -97.0792,-46.8578 -150.9869,-46.8936 z"
             style="fill:#e2e2e2;fill-opacity:1;stroke:none;stroke-width:3.6367;stroke-linecap:round;stroke-linejoin:round;stroke-dasharray:none;paint-order:stroke markers fill"
             id="path3472"
             sodipodi:nodetypes="ccccccscc" /><path
             d="m 1332.1318,3204.232 a 165.07365,165.07365 0 0 0 -98.1339,-32.4817 165.07365,165.07365 0 0 0 -15.4667,1.7438 267.08921,267.08921 0 0 0 -128.3427,227.6628 267.08921,267.08921 0 0 0 1.5378,17.5656 165.07365,165.07365 0 0 0 37.1198,44.9331 267.08921,267.08921 0 0 0 203.3177,-258.3724 267.08921,267.08921 0 0 0 -0.033,-1.0512 z"
             style="fill:#e2e2e2;fill-opacity:1;stroke:none;stroke-width:3.6367;stroke-linecap:round;stroke-linejoin:round;stroke-dasharray:none;paint-order:stroke markers fill"
             id="path3473" /><path
             d="m 1468.5057,3179.9556 c -23.3992,0.344 -44.6834,13.6189 -55.2856,34.481 l -3.6367,7.7956 -65.4784,140.4176 -12.0856,25.9185 c -1.3136,4.2244 -2.1789,8.5752 -2.5819,12.9807 0.1146,24.9259 14.9032,47.4447 37.7307,57.4554 l 53.1158,-113.9059 21.3087,-45.6931 53.0092,-113.6824 c -8.1867,-3.7651 -17.0854,-5.7318 -26.0962,-5.7674 z"
             style="fill:#e2e2e2;fill-opacity:1;stroke:none;stroke-width:3.6367;stroke-linecap:round;stroke-linejoin:round;stroke-dasharray:none;paint-order:stroke markers fill"
             id="path3474" /></g><g
           id="g3477"
           transform="matrix(0.6682082,0,0,0.6682082,779.1125,5414.0624)"
           style="fill:#e2e2e2;fill-opacity:1"><path
             d="m 1061.5028,2938.222 c -68.72452,0.1911 -134.73182,26.8665 -184.29252,74.4777 l -80.92,173.5315 -31.015,66.512 -88.82899,190.4967 c 19.2946,72.2186 84.71249,122.4579 159.46399,122.465 67.3927,-0.6115 121.0353,-40.104 141.0446,-73.1727 9.9763,-16.4875 235.53482,-507.4166 235.53482,-507.4166 -44.4431,-30.5101 -97.0792,-46.8578 -150.9869,-46.8936 z"
             style="fill:#e2e2e2;fill-opacity:1;stroke:none;stroke-width:3.6367;stroke-linecap:round;stroke-linejoin:round;stroke-dasharray:none;paint-order:stroke markers fill"
             id="path3475"
             sodipodi:nodetypes="ccccccscc" /><path
             d="m 1332.1318,3204.232 a 165.07365,165.07365 0 0 0 -98.1339,-32.4817 165.07365,165.07365 0 0 0 -15.4667,1.7438 267.08921,267.08921 0 0 0 -128.3427,227.6628 267.08921,267.08921 0 0 0 1.5378,17.5656 165.07365,165.07365 0 0 0 37.1198,44.9331 267.08921,267.08921 0 0 0 203.3177,-258.3724 267.08921,267.08921 0 0 0 -0.033,-1.0512 z"
             style="fill:#e2e2e2;fill-opacity:1;stroke:none;stroke-width:3.6367;stroke-linecap:round;stroke-linejoin:round;stroke-dasharray:none;paint-order:stroke markers fill"
             id="path3476" /><path
             d="m 1468.5057,3179.9556 c -23.3992,0.344 -44.6834,13.6189 -55.2856,34.481 l -3.6367,7.7956 -65.4784,140.4176 -12.0856,25.9185 c -1.3136,4.2244 -2.1789,8.5752 -2.5819,12.9807 0.1146,24.9259 14.9032,47.4447 37.7307,57.4554 l 53.1158,-113.9059 21.3087,-45.6931 53.0092,-113.6824 c -8.1867,-3.7651 -17.0854,-5.7318 -26.0962,-5.7674 z"
             style="fill:#e2e2e2;fill-opacity:1;stroke:none;stroke-width:3.6367;stroke-linecap:round;stroke-linejoin:round;stroke-dasharray:none;paint-order:stroke markers fill"
             id="path3477" /></g><g
           id="g3480"
           transform="matrix(0.958174,0,0,0.958174,1210.9446,3932.2376)"
           style="fill:#e2e2e2;fill-opacity:1"><path
             d="m 1061.5028,2938.222 c -68.72452,0.1911 -134.73182,26.8665 -184.29252,74.4777 l -80.92,173.5315 -31.015,66.512 -88.82899,190.4967 c 19.2946,72.2186 84.71249,122.4579 159.46399,122.465 67.3927,-0.6115 121.0353,-40.104 141.0446,-73.1727 9.9763,-16.4875 235.53482,-507.4166 235.53482,-507.4166 -44.4431,-30.5101 -97.0792,-46.8578 -150.9869,-46.8936 z"
             style="fill:#e2e2e2;fill-opacity:1;stroke:none;stroke-width:3.6367;stroke-linecap:round;stroke-linejoin:round;stroke-dasharray:none;paint-order:stroke markers fill"
             id="path3478"
             sodipodi:nodetypes="ccccccscc" /><path
             d="m 1332.1318,3204.232 a 165.07365,165.07365 0 0 0 -98.1339,-32.4817 165.07365,165.07365 0 0 0 -15.4667,1.7438 267.08921,267.08921 0 0 0 -128.3427,227.6628 267.08921,267.08921 0 0 0 1.5378,17.5656 165.07365,165.07365 0 0 0 37.1198,44.9331 267.08921,267.08921 0 0 0 203.3177,-258.3724 267.08921,267.08921 0 0 0 -0.033,-1.0512 z"
             style="fill:#e2e2e2;fill-opacity:1;stroke:none;stroke-width:3.6367;stroke-linecap:round;stroke-linejoin:round;stroke-dasharray:none;paint-order:stroke markers fill"
             id="path3479" /><path
             d="m 1468.5057,3179.9556 c -23.3992,0.344 -44.6834,13.6189 -55.2856,34.481 l -3.6367,7.7956 -65.4784,140.4176 -12.0856,25.9185 c -1.3136,4.2244 -2.1789,8.5752 -2.5819,12.9807 0.1146,24.9259 14.9032,47.4447 37.7307,57.4554 l 53.1158,-113.9059 21.3087,-45.6931 53.0092,-113.6824 c -8.1867,-3.7651 -17.0854,-5.7318 -26.0962,-5.7674 z"
             style="fill:#e2e2e2;fill-opacity:1;stroke:none;stroke-width:3.6367;stroke-linecap:round;stroke-linejoin:round;stroke-dasharray:none;paint-order:stroke markers fill"
             id="path3480" /></g><g
           id="g3483"
           transform="matrix(0.31209844,0,0,0.31209844,2286.2945,5760.867)"
           style="fill:#e2e2e2;fill-opacity:1"><path
             d="m 1061.5028,2938.222 c -68.72452,0.1911 -134.73182,26.8665 -184.29252,74.4777 l -80.92,173.5315 -31.015,66.512 -88.82899,190.4967 c 19.2946,72.2186 84.71249,122.4579 159.46399,122.465 67.3927,-0.6115 121.0353,-40.104 141.0446,-73.1727 9.9763,-16.4875 235.53482,-507.4166 235.53482,-507.4166 -44.4431,-30.5101 -97.0792,-46.8578 -150.9869,-46.8936 z"
             style="fill:#e2e2e2;fill-opacity:1;stroke:none;stroke-width:3.6367;stroke-linecap:round;stroke-linejoin:round;stroke-dasharray:none;paint-order:stroke markers fill"
             id="path3481"
             sodipodi:nodetypes="ccccccscc" /><path
             d="m 1332.1318,3204.232 a 165.07365,165.07365 0 0 0 -98.1339,-32.4817 165.07365,165.07365 0 0 0 -15.4667,1.7438 267.08921,267.08921 0 0 0 -128.3427,227.6628 267.08921,267.08921 0 0 0 1.5378,17.5656 165.07365,165.07365 0 0 0 37.1198,44.9331 267.08921,267.08921 0 0 0 203.3177,-258.3724 267.08921,267.08921 0 0 0 -0.033,-1.0512 z"
             style="fill:#e2e2e2;fill-opacity:1;stroke:none;stroke-width:3.6367;stroke-linecap:round;stroke-linejoin:round;stroke-dasharray:none;paint-order:stroke markers fill"
             id="path3482" /><path
             d="m 1468.5057,3179.9556 c -23.3992,0.344 -44.6834,13.6189 -55.2856,34.481 l -3.6367,7.7956 -65.4784,140.4176 -12.0856,25.9185 c -1.3136,4.2244 -2.1789,8.5752 -2.5819,12.9807 0.1146,24.9259 14.9032,47.4447 37.7307,57.4554 l 53.1158,-113.9059 21.3087,-45.6931 53.0092,-113.6824 c -8.1867,-3.7651 -17.0854,-5.7318 -26.0962,-5.7674 z"
             style="fill:#e2e2e2;fill-opacity:1;stroke:none;stroke-width:3.6367;stroke-linecap:round;stroke-linejoin:round;stroke-dasharray:none;paint-order:stroke markers fill"
             id="path3483" /></g><g
           id="g3486"
           transform="matrix(1.4107783,0,0,1.4107783,-665.9504,3410.8826)"
           style="fill:#e2e2e2;fill-opacity:1"><path
             d="m 1061.5028,2938.222 c -68.72452,0.1911 -134.73182,26.8665 -184.29252,74.4777 l -80.92,173.5315 -31.015,66.512 -88.82899,190.4967 c 19.2946,72.2186 84.71249,122.4579 159.46399,122.465 67.3927,-0.6115 121.0353,-40.104 141.0446,-73.1727 9.9763,-16.4875 235.53482,-507.4166 235.53482,-507.4166 -44.4431,-30.5101 -97.0792,-46.8578 -150.9869,-46.8936 z"
             style="fill:#e2e2e2;fill-opacity:1;stroke:none;stroke-width:3.6367;stroke-linecap:round;stroke-linejoin:round;stroke-dasharray:none;paint-order:stroke markers fill"
             id="path3484"
             sodipodi:nodetypes="ccccccscc" /><path
             d="m 1332.1318,3204.232 a 165.07365,165.07365 0 0 0 -98.1339,-32.4817 165.07365,165.07365 0 0 0 -15.4667,1.7438 267.08921,267.08921 0 0 0 -128.3427,227.6628 267.08921,267.08921 0 0 0 1.5378,17.5656 165.07365,165.07365 0 0 0 37.1198,44.9331 267.08921,267.08921 0 0 0 203.3177,-258.3724 267.08921,267.08921 0 0 0 -0.033,-1.0512 z"
             style="fill:#e2e2e2;fill-opacity:1;stroke:none;stroke-width:3.6367;stroke-linecap:round;stroke-linejoin:round;stroke-dasharray:none;paint-order:stroke markers fill"
             id="path3485" /><path
             d="m 1468.5057,3179.9556 c -23.3992,0.344 -44.6834,13.6189 -55.2856,34.481 l -3.6367,7.7956 -65.4784,140.4176 -12.0856,25.9185 c -1.3136,4.2244 -2.1789,8.5752 -2.5819,12.9807 0.1146,24.9259 14.9032,47.4447 37.7307,57.4554 l 53.1158,-113.9059 21.3087,-45.6931 53.0092,-113.6824 c -8.1867,-3.7651 -17.0854,-5.7318 -26.0962,-5.7674 z"
             style="fill:#e2e2e2;fill-opacity:1;stroke:none;stroke-width:3.6367;stroke-linecap:round;stroke-linejoin:round;stroke-dasharray:none;paint-order:stroke markers fill"
             id="path3486" /></g><g
           id="g3489"
           transform="matrix(0.6865704,0,0,0.6865704,1322.9588,5458.4454)"
           style="fill:#e2e2e2;fill-opacity:1"><path
             d="m 1061.5028,2938.222 c -68.72452,0.1911 -134.73182,26.8665 -184.29252,74.4777 l -80.92,173.5315 -31.015,66.512 -88.82899,190.4967 c 19.2946,72.2186 84.71249,122.4579 159.46399,122.465 67.3927,-0.6115 121.0353,-40.104 141.0446,-73.1727 9.9763,-16.4875 235.53482,-507.4166 235.53482,-507.4166 -44.4431,-30.5101 -97.0792,-46.8578 -150.9869,-46.8936 z"
             style="fill:#e2e2e2;fill-opacity:1;stroke:none;stroke-width:3.6367;stroke-linecap:round;stroke-linejoin:round;stroke-dasharray:none;paint-order:stroke markers fill"
             id="path3487"
             sodipodi:nodetypes="ccccccscc" /><path
             d="m 1332.1318,3204.232 a 165.07365,165.07365 0 0 0 -98.1339,-32.4817 165.07365,165.07365 0 0 0 -15.4667,1.7438 267.08921,267.08921 0 0 0 -128.3427,227.6628 267.08921,267.08921 0 0 0 1.5378,17.5656 165.07365,165.07365 0 0 0 37.1198,44.9331 267.08921,267.08921 0 0 0 203.3177,-258.3724 267.08921,267.08921 0 0 0 -0.033,-1.0512 z"
             style="fill:#e2e2e2;fill-opacity:1;stroke:none;stroke-width:3.6367;stroke-linecap:round;stroke-linejoin:round;stroke-dasharray:none;paint-order:stroke markers fill"
             id="path3488" /><path
             d="m 1468.5057,3179.9556 c -23.3992,0.344 -44.6834,13.6189 -55.2856,34.481 l -3.6367,7.7956 -65.4784,140.4176 -12.0856,25.9185 c -1.3136,4.2244 -2.1789,8.5752 -2.5819,12.9807 0.1146,24.9259 14.9032,47.4447 37.7307,57.4554 l 53.1158,-113.9059 21.3087,-45.6931 53.0092,-113.6824 c -8.1867,-3.7651 -17.0854,-5.7318 -26.0962,-5.7674 z"
             style="fill:#e2e2e2;fill-opacity:1;stroke:none;stroke-width:3.6367;stroke-linecap:round;stroke-linejoin:round;stroke-dasharray:none;paint-order:stroke markers fill"
             id="path3489" /></g><g
           id="g3492"
           transform="matrix(0.42732019,0,0,0.42732019,2002.0911,4688.0238)"
           style="fill:#e2e2e2;fill-opacity:1"><path
             d="m 1009.5164,2938.222 c -68.72476,0.1911 -134.73206,26.8665 -184.29276,74.4777 l -80.92,173.5315 -31.015,66.512 -88.82899,190.4967 c 19.2946,72.2186 84.71249,122.4579 159.46399,122.465 67.3927,-0.6115 121.0353,-40.104 141.0446,-73.1727 9.9763,-16.4875 235.53506,-507.4166 235.53506,-507.4166 -44.4431,-30.5101 -97.0792,-46.8578 -150.9869,-46.8936 z"
             style="fill:#e2e2e2;fill-opacity:1;stroke:none;stroke-width:3.6367;stroke-linecap:round;stroke-linejoin:round;stroke-dasharray:none;paint-order:stroke markers fill"
             id="path3490"
             sodipodi:nodetypes="ccccccscc" /><path
             d="m 1332.1318,3204.232 a 165.07365,165.07365 0 0 0 -98.1339,-32.4817 165.07365,165.07365 0 0 0 -15.4667,1.7438 267.08921,267.08921 0 0 0 -128.3427,227.6628 267.08921,267.08921 0 0 0 1.5378,17.5656 165.07365,165.07365 0 0 0 37.1198,44.9331 267.08921,267.08921 0 0 0 203.3177,-258.3724 267.08921,267.08921 0 0 0 -0.033,-1.0512 z"
             style="fill:#e2e2e2;fill-opacity:1;stroke:none;stroke-width:3.6367;stroke-linecap:round;stroke-linejoin:round;stroke-dasharray:none;paint-order:stroke markers fill"
             id="path3491" /><path
             d="m 1507.4955,3179.9556 c -23.3992,0.344 -44.6834,13.6189 -55.2856,34.481 l -3.6367,7.7956 -65.4784,140.4176 -12.0856,25.9185 c -1.3136,4.2244 -2.1789,8.5752 -2.5819,12.9807 0.1146,24.9259 14.9032,47.4447 37.7307,57.4554 l 53.1158,-113.9059 21.3087,-45.6931 53.0092,-113.6824 c -8.1867,-3.7651 -17.0854,-5.7318 -26.0962,-5.7674 z"
             style="fill:#e2e2e2;fill-opacity:1;stroke:none;stroke-width:3.6367;stroke-linecap:round;stroke-linejoin:round;stroke-dasharray:none;paint-order:stroke markers fill"
             id="path3492" /></g></g><g
         id="g3529"
         transform="translate(1771.7825,19.03895)"
         clip-path="url(#clipPath3529)"
         style="fill:#e2e2e2;fill-opacity:1"><g
           id="g3495"
           transform="matrix(1.4374921,0,0,1.4374921,-304.28775,2332.6662)"
           style="fill:#e2e2e2;fill-opacity:1"><path
             d="m 1061.5028,2938.222 c -68.72452,0.1911 -134.73182,26.8665 -184.29252,74.4777 l -80.92,173.5315 -31.015,66.512 -88.82899,190.4967 c 19.2946,72.2186 84.71249,122.4579 159.46399,122.465 67.3927,-0.6115 121.0353,-40.104 141.0446,-73.1727 9.9763,-16.4875 235.53482,-507.4166 235.53482,-507.4166 -44.4431,-30.5101 -97.0792,-46.8578 -150.9869,-46.8936 z"
             style="fill:#e2e2e2;fill-opacity:1;stroke:none;stroke-width:3.6367;stroke-linecap:round;stroke-linejoin:round;stroke-dasharray:none;paint-order:stroke markers fill"
             id="path3493"
             sodipodi:nodetypes="ccccccscc" /><path
             d="m 1332.1318,3204.232 a 165.07365,165.07365 0 0 0 -98.1339,-32.4817 165.07365,165.07365 0 0 0 -15.4667,1.7438 267.08921,267.08921 0 0 0 -128.3427,227.6628 267.08921,267.08921 0 0 0 1.5378,17.5656 165.07365,165.07365 0 0 0 37.1198,44.9331 267.08921,267.08921 0 0 0 203.3177,-258.3724 267.08921,267.08921 0 0 0 -0.033,-1.0512 z"
             style="fill:#e2e2e2;fill-opacity:1;stroke:none;stroke-width:3.6367;stroke-linecap:round;stroke-linejoin:round;stroke-dasharray:none;paint-order:stroke markers fill"
             id="path3494" /><path
             d="m 1468.5057,3179.9556 c -23.3992,0.344 -44.6834,13.6189 -55.2856,34.481 l -3.6367,7.7956 -65.4784,140.4176 -12.0856,25.9185 c -1.3136,4.2244 -2.1789,8.5752 -2.5819,12.9807 0.1146,24.9259 14.9032,47.4447 37.7307,57.4554 l 53.1158,-113.9059 21.3087,-45.6931 53.0092,-113.6824 c -8.1867,-3.7651 -17.0854,-5.7318 -26.0962,-5.7674 z"
             style="fill:#e2e2e2;fill-opacity:1;stroke:none;stroke-width:3.6367;stroke-linecap:round;stroke-linejoin:round;stroke-dasharray:none;paint-order:stroke markers fill"
             id="path3495" /></g><g
           id="g3498"
           transform="matrix(1.1163022,0,0,1.0721069,803.69198,2891.1195)"
           style="fill:#e2e2e2;fill-opacity:1"><path
             d="m 1061.5028,2938.222 c -68.72452,0.1911 -134.73182,26.8665 -184.29252,74.4777 l -80.92,173.5315 -31.015,66.512 -88.82899,190.4967 c 19.2946,72.2186 84.71249,122.4579 159.46399,122.465 67.3927,-0.6115 121.0353,-40.104 141.0446,-73.1727 9.9763,-16.4875 235.53482,-507.4166 235.53482,-507.4166 -44.4431,-30.5101 -97.0792,-46.8578 -150.9869,-46.8936 z"
             style="fill:#e2e2e2;fill-opacity:1;stroke:none;stroke-width:3.6367;stroke-linecap:round;stroke-linejoin:round;stroke-dasharray:none;paint-order:stroke markers fill"
             id="path3496"
             sodipodi:nodetypes="ccccccscc" /><path
             d="m 1332.1318,3204.232 a 165.07365,165.07365 0 0 0 -98.1339,-32.4817 165.07365,165.07365 0 0 0 -15.4667,1.7438 267.08921,267.08921 0 0 0 -128.3427,227.6628 267.08921,267.08921 0 0 0 1.5378,17.5656 165.07365,165.07365 0 0 0 37.1198,44.9331 267.08921,267.08921 0 0 0 203.3177,-258.3724 267.08921,267.08921 0 0 0 -0.033,-1.0512 z"
             style="fill:#e2e2e2;fill-opacity:1;stroke:none;stroke-width:3.6367;stroke-linecap:round;stroke-linejoin:round;stroke-dasharray:none;paint-order:stroke markers fill"
             id="path3497" /><path
             d="m 1468.5057,3179.9556 c -23.3992,0.344 -44.6834,13.6189 -55.2856,34.481 l -3.6367,7.7956 -65.4784,140.4176 -12.0856,25.9185 c -1.3136,4.2244 -2.1789,8.5752 -2.5819,12.9807 0.1146,24.9259 14.9032,47.4447 37.7307,57.4554 l 53.1158,-113.9059 21.3087,-45.6931 53.0092,-113.6824 c -8.1867,-3.7651 -17.0854,-5.7318 -26.0962,-5.7674 z"
             style="fill:#e2e2e2;fill-opacity:1;stroke:none;stroke-width:3.6367;stroke-linecap:round;stroke-linejoin:round;stroke-dasharray:none;paint-order:stroke markers fill"
             id="path3498" /></g><g
           id="g3501"
           transform="matrix(0.24527062,0,0,0.24527062,1894.8395,7227.0277)"
           style="fill:#e2e2e2;fill-opacity:1"><path
             d="m 1009.5164,2938.222 c -68.72476,0.1911 -134.73206,26.8665 -184.29276,74.4777 l -80.92,173.5315 -31.015,66.512 -88.82899,190.4967 c 19.2946,72.2186 84.71249,122.4579 159.46399,122.465 67.3927,-0.6115 121.0353,-40.104 141.0446,-73.1727 9.9763,-16.4875 235.53506,-507.4166 235.53506,-507.4166 -44.4431,-30.5101 -97.0792,-46.8578 -150.9869,-46.8936 z"
             style="fill:#e2e2e2;fill-opacity:1;stroke:none;stroke-width:3.6367;stroke-linecap:round;stroke-linejoin:round;stroke-dasharray:none;paint-order:stroke markers fill"
             id="path3499"
             sodipodi:nodetypes="ccccccscc" /><path
             d="m 1332.1318,3204.232 a 165.07365,165.07365 0 0 0 -98.1339,-32.4817 165.07365,165.07365 0 0 0 -15.4667,1.7438 267.08921,267.08921 0 0 0 -128.3427,227.6628 267.08921,267.08921 0 0 0 1.5378,17.5656 165.07365,165.07365 0 0 0 37.1198,44.9331 267.08921,267.08921 0 0 0 203.3177,-258.3724 267.08921,267.08921 0 0 0 -0.033,-1.0512 z"
             style="fill:#e2e2e2;fill-opacity:1;stroke:none;stroke-width:3.6367;stroke-linecap:round;stroke-linejoin:round;stroke-dasharray:none;paint-order:stroke markers fill"
             id="path3500" /><path
             d="m 1507.4955,3179.9556 c -23.3992,0.344 -44.6834,13.6189 -55.2856,34.481 l -3.6367,7.7956 -65.4784,140.4176 -12.0856,25.9185 c -1.3136,4.2244 -2.1789,8.5752 -2.5819,12.9807 0.1146,24.9259 14.9032,47.4447 37.7307,57.4554 l 53.1158,-113.9059 21.3087,-45.6931 53.0092,-113.6824 c -8.1867,-3.7651 -17.0854,-5.7318 -26.0962,-5.7674 z"
             style="fill:#e2e2e2;fill-opacity:1;stroke:none;stroke-width:3.6367;stroke-linecap:round;stroke-linejoin:round;stroke-dasharray:none;paint-order:stroke markers fill"
             id="path3501" /></g><g
           id="g3504"
           transform="matrix(1.225088,0,0,1.225088,-207.05834,2191.3398)"
           style="fill:#e2e2e2;fill-opacity:1"><path
             d="m 1061.5028,2938.222 c -68.72452,0.1911 -134.73182,26.8665 -184.29252,74.4777 l -80.92,173.5315 -31.015,66.512 -88.82899,190.4967 c 19.2946,72.2186 84.71249,122.4579 159.46399,122.465 67.3927,-0.6115 121.0353,-40.104 141.0446,-73.1727 9.9763,-16.4875 235.53482,-507.4166 235.53482,-507.4166 -44.4431,-30.5101 -97.0792,-46.8578 -150.9869,-46.8936 z"
             style="fill:#e2e2e2;fill-opacity:1;stroke:none;stroke-width:3.6367;stroke-linecap:round;stroke-linejoin:round;stroke-dasharray:none;paint-order:stroke markers fill"
             id="path3502"
             sodipodi:nodetypes="ccccccscc" /><path
             d="m 1332.1318,3204.232 a 165.07365,165.07365 0 0 0 -98.1339,-32.4817 165.07365,165.07365 0 0 0 -15.4667,1.7438 267.08921,267.08921 0 0 0 -128.3427,227.6628 267.08921,267.08921 0 0 0 1.5378,17.5656 165.07365,165.07365 0 0 0 37.1198,44.9331 267.08921,267.08921 0 0 0 203.3177,-258.3724 267.08921,267.08921 0 0 0 -0.033,-1.0512 z"
             style="fill:#e2e2e2;fill-opacity:1;stroke:none;stroke-width:3.6367;stroke-linecap:round;stroke-linejoin:round;stroke-dasharray:none;paint-order:stroke markers fill"
             id="path3503" /><path
             d="m 1468.5057,3179.9556 c -23.3992,0.344 -44.6834,13.6189 -55.2856,34.481 l -3.6367,7.7956 -65.4784,140.4176 -12.0856,25.9185 c -1.3136,4.2244 -2.1789,8.5752 -2.5819,12.9807 0.1146,24.9259 14.9032,47.4447 37.7307,57.4554 l 53.1158,-113.9059 21.3087,-45.6931 53.0092,-113.6824 c -8.1867,-3.7651 -17.0854,-5.7318 -26.0962,-5.7674 z"
             style="fill:#e2e2e2;fill-opacity:1;stroke:none;stroke-width:3.6367;stroke-linecap:round;stroke-linejoin:round;stroke-dasharray:none;paint-order:stroke markers fill"
             id="path3504" /></g><g
           id="g3507"
           transform="matrix(0.95115448,0,0,0.95115448,733.69033,5194.2702)"
           style="fill:#e2e2e2;fill-opacity:1"><path
             d="m 1061.5028,2938.222 c -68.72452,0.1911 -134.73182,26.8665 -184.29252,74.4777 l -80.92,173.5315 -31.015,66.512 -88.82899,190.4967 c 19.2946,72.2186 84.71249,122.4579 159.46399,122.465 67.3927,-0.6115 121.0353,-40.104 141.0446,-73.1727 9.9763,-16.4875 235.53482,-507.4166 235.53482,-507.4166 -44.4431,-30.5101 -97.0792,-46.8578 -150.9869,-46.8936 z"
             style="fill:#e2e2e2;fill-opacity:1;stroke:none;stroke-width:3.6367;stroke-linecap:round;stroke-linejoin:round;stroke-dasharray:none;paint-order:stroke markers fill"
             id="path3505"
             sodipodi:nodetypes="ccccccscc" /><path
             d="m 1332.1318,3204.232 a 165.07365,165.07365 0 0 0 -98.1339,-32.4817 165.07365,165.07365 0 0 0 -15.4667,1.7438 267.08921,267.08921 0 0 0 -128.3427,227.6628 267.08921,267.08921 0 0 0 1.5378,17.5656 165.07365,165.07365 0 0 0 37.1198,44.9331 267.08921,267.08921 0 0 0 203.3177,-258.3724 267.08921,267.08921 0 0 0 -0.033,-1.0512 z"
             style="fill:#e2e2e2;fill-opacity:1;stroke:none;stroke-width:3.6367;stroke-linecap:round;stroke-linejoin:round;stroke-dasharray:none;paint-order:stroke markers fill"
             id="path3506" /><path
             d="m 1468.5057,3179.9556 c -23.3992,0.344 -44.6834,13.6189 -55.2856,34.481 l -3.6367,7.7956 -65.4784,140.4176 -12.0856,25.9185 c -1.3136,4.2244 -2.1789,8.5752 -2.5819,12.9807 0.1146,24.9259 14.9032,47.4447 37.7307,57.4554 l 53.1158,-113.9059 21.3087,-45.6931 53.0092,-113.6824 c -8.1867,-3.7651 -17.0854,-5.7318 -26.0962,-5.7674 z"
             style="fill:#e2e2e2;fill-opacity:1;stroke:none;stroke-width:3.6367;stroke-linecap:round;stroke-linejoin:round;stroke-dasharray:none;paint-order:stroke markers fill"
             id="path3507" /></g><g
           id="g3510"
           transform="matrix(0.32424572,0,0,0.32424572,2088.84,6402.496)"
           style="fill:#e2e2e2;fill-opacity:1"><path
             d="m 1061.5028,2938.222 c -68.72452,0.1911 -134.73182,26.8665 -184.29252,74.4777 l -80.92,173.5315 -31.015,66.512 -88.82899,190.4967 c 19.2946,72.2186 84.71249,122.4579 159.46399,122.465 67.3927,-0.6115 121.0353,-40.104 141.0446,-73.1727 9.9763,-16.4875 235.53482,-507.4166 235.53482,-507.4166 -44.4431,-30.5101 -97.0792,-46.8578 -150.9869,-46.8936 z"
             style="fill:#e2e2e2;fill-opacity:1;stroke:none;stroke-width:3.6367;stroke-linecap:round;stroke-linejoin:round;stroke-dasharray:none;paint-order:stroke markers fill"
             id="path3508"
             sodipodi:nodetypes="ccccccscc" /><path
             d="m 1332.1318,3204.232 a 165.07365,165.07365 0 0 0 -98.1339,-32.4817 165.07365,165.07365 0 0 0 -15.4667,1.7438 267.08921,267.08921 0 0 0 -128.3427,227.6628 267.08921,267.08921 0 0 0 1.5378,17.5656 165.07365,165.07365 0 0 0 37.1198,44.9331 267.08921,267.08921 0 0 0 203.3177,-258.3724 267.08921,267.08921 0 0 0 -0.033,-1.0512 z"
             style="fill:#e2e2e2;fill-opacity:1;stroke:none;stroke-width:3.6367;stroke-linecap:round;stroke-linejoin:round;stroke-dasharray:none;paint-order:stroke markers fill"
             id="path3509" /><path
             d="m 1468.5057,3179.9556 c -23.3992,0.344 -44.6834,13.6189 -55.2856,34.481 l -3.6367,7.7956 -65.4784,140.4176 -12.0856,25.9185 c -1.3136,4.2244 -2.1789,8.5752 -2.5819,12.9807 0.1146,24.9259 14.9032,47.4447 37.7307,57.4554 l 53.1158,-113.9059 21.3087,-45.6931 53.0092,-113.6824 c -8.1867,-3.7651 -17.0854,-5.7318 -26.0962,-5.7674 z"
             style="fill:#e2e2e2;fill-opacity:1;stroke:none;stroke-width:3.6367;stroke-linecap:round;stroke-linejoin:round;stroke-dasharray:none;paint-order:stroke markers fill"
             id="path3510" /></g><g
           id="g3513"
           transform="matrix(0.6682082,0,0,0.6682082,779.1125,5414.0624)"
           style="fill:#e2e2e2;fill-opacity:1"><path
             d="m 1061.5028,2938.222 c -68.72452,0.1911 -134.73182,26.8665 -184.29252,74.4777 l -80.92,173.5315 -31.015,66.512 -88.82899,190.4967 c 19.2946,72.2186 84.71249,122.4579 159.46399,122.465 67.3927,-0.6115 121.0353,-40.104 141.0446,-73.1727 9.9763,-16.4875 235.53482,-507.4166 235.53482,-507.4166 -44.4431,-30.5101 -97.0792,-46.8578 -150.9869,-46.8936 z"
             style="fill:#e2e2e2;fill-opacity:1;stroke:none;stroke-width:3.6367;stroke-linecap:round;stroke-linejoin:round;stroke-dasharray:none;paint-order:stroke markers fill"
             id="path3511"
             sodipodi:nodetypes="ccccccscc" /><path
             d="m 1332.1318,3204.232 a 165.07365,165.07365 0 0 0 -98.1339,-32.4817 165.07365,165.07365 0 0 0 -15.4667,1.7438 267.08921,267.08921 0 0 0 -128.3427,227.6628 267.08921,267.08921 0 0 0 1.5378,17.5656 165.07365,165.07365 0 0 0 37.1198,44.9331 267.08921,267.08921 0 0 0 203.3177,-258.3724 267.08921,267.08921 0 0 0 -0.033,-1.0512 z"
             style="fill:#e2e2e2;fill-opacity:1;stroke:none;stroke-width:3.6367;stroke-linecap:round;stroke-linejoin:round;stroke-dasharray:none;paint-order:stroke markers fill"
             id="path3512" /><path
             d="m 1468.5057,3179.9556 c -23.3992,0.344 -44.6834,13.6189 -55.2856,34.481 l -3.6367,7.7956 -65.4784,140.4176 -12.0856,25.9185 c -1.3136,4.2244 -2.1789,8.5752 -2.5819,12.9807 0.1146,24.9259 14.9032,47.4447 37.7307,57.4554 l 53.1158,-113.9059 21.3087,-45.6931 53.0092,-113.6824 c -8.1867,-3.7651 -17.0854,-5.7318 -26.0962,-5.7674 z"
             style="fill:#e2e2e2;fill-opacity:1;stroke:none;stroke-width:3.6367;stroke-linecap:round;stroke-linejoin:round;stroke-dasharray:none;paint-order:stroke markers fill"
             id="path3513" /></g><g
           id="g3516"
           transform="matrix(0.958174,0,0,0.958174,1210.9446,3932.2376)"
           style="fill:#e2e2e2;fill-opacity:1"><path
             d="m 1061.5028,2938.222 c -68.72452,0.1911 -134.73182,26.8665 -184.29252,74.4777 l -80.92,173.5315 -31.015,66.512 -88.82899,190.4967 c 19.2946,72.2186 84.71249,122.4579 159.46399,122.465 67.3927,-0.6115 121.0353,-40.104 141.0446,-73.1727 9.9763,-16.4875 235.53482,-507.4166 235.53482,-507.4166 -44.4431,-30.5101 -97.0792,-46.8578 -150.9869,-46.8936 z"
             style="fill:#e2e2e2;fill-opacity:1;stroke:none;stroke-width:3.6367;stroke-linecap:round;stroke-linejoin:round;stroke-dasharray:none;paint-order:stroke markers fill"
             id="path3514"
             sodipodi:nodetypes="ccccccscc" /><path
             d="m 1332.1318,3204.232 a 165.07365,165.07365 0 0 0 -98.1339,-32.4817 165.07365,165.07365 0 0 0 -15.4667,1.7438 267.08921,267.08921 0 0 0 -128.3427,227.6628 267.08921,267.08921 0 0 0 1.5378,17.5656 165.07365,165.07365 0 0 0 37.1198,44.9331 267.08921,267.08921 0 0 0 203.3177,-258.3724 267.08921,267.08921 0 0 0 -0.033,-1.0512 z"
             style="fill:#e2e2e2;fill-opacity:1;stroke:none;stroke-width:3.6367;stroke-linecap:round;stroke-linejoin:round;stroke-dasharray:none;paint-order:stroke markers fill"
             id="path3515" /><path
             d="m 1468.5057,3179.9556 c -23.3992,0.344 -44.6834,13.6189 -55.2856,34.481 l -3.6367,7.7956 -65.4784,140.4176 -12.0856,25.9185 c -1.3136,4.2244 -2.1789,8.5752 -2.5819,12.9807 0.1146,24.9259 14.9032,47.4447 37.7307,57.4554 l 53.1158,-113.9059 21.3087,-45.6931 53.0092,-113.6824 c -8.1867,-3.7651 -17.0854,-5.7318 -26.0962,-5.7674 z"
             style="fill:#e2e2e2;fill-opacity:1;stroke:none;stroke-width:3.6367;stroke-linecap:round;stroke-linejoin:round;stroke-dasharray:none;paint-order:stroke markers fill"
             id="path3516" /></g><g
           id="g3519"
           transform="matrix(0.31209844,0,0,0.31209844,2286.2945,5760.867)"
           style="fill:#e2e2e2;fill-opacity:1"><path
             d="m 1061.5028,2938.222 c -68.72452,0.1911 -134.73182,26.8665 -184.29252,74.4777 l -80.92,173.5315 -31.015,66.512 -88.82899,190.4967 c 19.2946,72.2186 84.71249,122.4579 159.46399,122.465 67.3927,-0.6115 121.0353,-40.104 141.0446,-73.1727 9.9763,-16.4875 235.53482,-507.4166 235.53482,-507.4166 -44.4431,-30.5101 -97.0792,-46.8578 -150.9869,-46.8936 z"
             style="fill:#e2e2e2;fill-opacity:1;stroke:none;stroke-width:3.6367;stroke-linecap:round;stroke-linejoin:round;stroke-dasharray:none;paint-order:stroke markers fill"
             id="path3517"
             sodipodi:nodetypes="ccccccscc" /><path
             d="m 1332.1318,3204.232 a 165.07365,165.07365 0 0 0 -98.1339,-32.4817 165.07365,165.07365 0 0 0 -15.4667,1.7438 267.08921,267.08921 0 0 0 -128.3427,227.6628 267.08921,267.08921 0 0 0 1.5378,17.5656 165.07365,165.07365 0 0 0 37.1198,44.9331 267.08921,267.08921 0 0 0 203.3177,-258.3724 267.08921,267.08921 0 0 0 -0.033,-1.0512 z"
             style="fill:#e2e2e2;fill-opacity:1;stroke:none;stroke-width:3.6367;stroke-linecap:round;stroke-linejoin:round;stroke-dasharray:none;paint-order:stroke markers fill"
             id="path3518" /><path
             d="m 1468.5057,3179.9556 c -23.3992,0.344 -44.6834,13.6189 -55.2856,34.481 l -3.6367,7.7956 -65.4784,140.4176 -12.0856,25.9185 c -1.3136,4.2244 -2.1789,8.5752 -2.5819,12.9807 0.1146,24.9259 14.9032,47.4447 37.7307,57.4554 l 53.1158,-113.9059 21.3087,-45.6931 53.0092,-113.6824 c -8.1867,-3.7651 -17.0854,-5.7318 -26.0962,-5.7674 z"
             style="fill:#e2e2e2;fill-opacity:1;stroke:none;stroke-width:3.6367;stroke-linecap:round;stroke-linejoin:round;stroke-dasharray:none;paint-order:stroke markers fill"
             id="path3519" /></g><g
           id="g3522"
           transform="matrix(1.4107783,0,0,1.4107783,-665.9504,3410.8826)"
           style="fill:#e2e2e2;fill-opacity:1"><path
             d="m 1061.5028,2938.222 c -68.72452,0.1911 -134.73182,26.8665 -184.29252,74.4777 l -80.92,173.5315 -31.015,66.512 -88.82899,190.4967 c 19.2946,72.2186 84.71249,122.4579 159.46399,122.465 67.3927,-0.6115 121.0353,-40.104 141.0446,-73.1727 9.9763,-16.4875 235.53482,-507.4166 235.53482,-507.4166 -44.4431,-30.5101 -97.0792,-46.8578 -150.9869,-46.8936 z"
             style="fill:#e2e2e2;fill-opacity:1;stroke:none;stroke-width:3.6367;stroke-linecap:round;stroke-linejoin:round;stroke-dasharray:none;paint-order:stroke markers fill"
             id="path3520"
             sodipodi:nodetypes="ccccccscc" /><path
             d="m 1332.1318,3204.232 a 165.07365,165.07365 0 0 0 -98.1339,-32.4817 165.07365,165.07365 0 0 0 -15.4667,1.7438 267.08921,267.08921 0 0 0 -128.3427,227.6628 267.08921,267.08921 0 0 0 1.5378,17.5656 165.07365,165.07365 0 0 0 37.1198,44.9331 267.08921,267.08921 0 0 0 203.3177,-258.3724 267.08921,267.08921 0 0 0 -0.033,-1.0512 z"
             style="fill:#e2e2e2;fill-opacity:1;stroke:none;stroke-width:3.6367;stroke-linecap:round;stroke-linejoin:round;stroke-dasharray:none;paint-order:stroke markers fill"
             id="path3521" /><path
             d="m 1468.5057,3179.9556 c -23.3992,0.344 -44.6834,13.6189 -55.2856,34.481 l -3.6367,7.7956 -65.4784,140.4176 -12.0856,25.9185 c -1.3136,4.2244 -2.1789,8.5752 -2.5819,12.9807 0.1146,24.9259 14.9032,47.4447 37.7307,57.4554 l 53.1158,-113.9059 21.3087,-45.6931 53.0092,-113.6824 c -8.1867,-3.7651 -17.0854,-5.7318 -26.0962,-5.7674 z"
             style="fill:#e2e2e2;fill-opacity:1;stroke:none;stroke-width:3.6367;stroke-linecap:round;stroke-linejoin:round;stroke-dasharray:none;paint-order:stroke markers fill"
             id="path3522" /></g><g
           id="g3525"
           transform="matrix(0.6865704,0,0,0.6865704,1322.9588,5458.4454)"
           style="fill:#e2e2e2;fill-opacity:1"><path
             d="m 1061.5028,2938.222 c -68.72452,0.1911 -134.73182,26.8665 -184.29252,74.4777 l -80.92,173.5315 -31.015,66.512 -88.82899,190.4967 c 19.2946,72.2186 84.71249,122.4579 159.46399,122.465 67.3927,-0.6115 121.0353,-40.104 141.0446,-73.1727 9.9763,-16.4875 235.53482,-507.4166 235.53482,-507.4166 -44.4431,-30.5101 -97.0792,-46.8578 -150.9869,-46.8936 z"
             style="fill:#e2e2e2;fill-opacity:1;stroke:none;stroke-width:3.6367;stroke-linecap:round;stroke-linejoin:round;stroke-dasharray:none;paint-order:stroke markers fill"
             id="path3523"
             sodipodi:nodetypes="ccccccscc" /><path
             d="m 1332.1318,3204.232 a 165.07365,165.07365 0 0 0 -98.1339,-32.4817 165.07365,165.07365 0 0 0 -15.4667,1.7438 267.08921,267.08921 0 0 0 -128.3427,227.6628 267.08921,267.08921 0 0 0 1.5378,17.5656 165.07365,165.07365 0 0 0 37.1198,44.9331 267.08921,267.08921 0 0 0 203.3177,-258.3724 267.08921,267.08921 0 0 0 -0.033,-1.0512 z"
             style="fill:#e2e2e2;fill-opacity:1;stroke:none;stroke-width:3.6367;stroke-linecap:round;stroke-linejoin:round;stroke-dasharray:none;paint-order:stroke markers fill"
             id="path3524" /><path
             d="m 1468.5057,3179.9556 c -23.3992,0.344 -44.6834,13.6189 -55.2856,34.481 l -3.6367,7.7956 -65.4784,140.4176 -12.0856,25.9185 c -1.3136,4.2244 -2.1789,8.5752 -2.5819,12.9807 0.1146,24.9259 14.9032,47.4447 37.7307,57.4554 l 53.1158,-113.9059 21.3087,-45.6931 53.0092,-113.6824 c -8.1867,-3.7651 -17.0854,-5.7318 -26.0962,-5.7674 z"
             style="fill:#e2e2e2;fill-opacity:1;stroke:none;stroke-width:3.6367;stroke-linecap:round;stroke-linejoin:round;stroke-dasharray:none;paint-order:stroke markers fill"
             id="path3525" /></g><g
           id="g3528"
           transform="matrix(0.42732019,0,0,0.42732019,2002.0911,4688.0238)"
           style="fill:#e2e2e2;fill-opacity:1"><path
             d="m 1009.5164,2938.222 c -68.72476,0.1911 -134.73206,26.8665 -184.29276,74.4777 l -80.92,173.5315 -31.015,66.512 -88.82899,190.4967 c 19.2946,72.2186 84.71249,122.4579 159.46399,122.465 67.3927,-0.6115 121.0353,-40.104 141.0446,-73.1727 9.9763,-16.4875 235.53506,-507.4166 235.53506,-507.4166 -44.4431,-30.5101 -97.0792,-46.8578 -150.9869,-46.8936 z"
             style="fill:#e2e2e2;fill-opacity:1;stroke:none;stroke-width:3.6367;stroke-linecap:round;stroke-linejoin:round;stroke-dasharray:none;paint-order:stroke markers fill"
             id="path3526"
             sodipodi:nodetypes="ccccccscc" /><path
             d="m 1332.1318,3204.232 a 165.07365,165.07365 0 0 0 -98.1339,-32.4817 165.07365,165.07365 0 0 0 -15.4667,1.7438 267.08921,267.08921 0 0 0 -128.3427,227.6628 267.08921,267.08921 0 0 0 1.5378,17.5656 165.07365,165.07365 0 0 0 37.1198,44.9331 267.08921,267.08921 0 0 0 203.3177,-258.3724 267.08921,267.08921 0 0 0 -0.033,-1.0512 z"
             style="fill:#e2e2e2;fill-opacity:1;stroke:none;stroke-width:3.6367;stroke-linecap:round;stroke-linejoin:round;stroke-dasharray:none;paint-order:stroke markers fill"
             id="path3527" /><path
             d="m 1507.4955,3179.9556 c -23.3992,0.344 -44.6834,13.6189 -55.2856,34.481 l -3.6367,7.7956 -65.4784,140.4176 -12.0856,25.9185 c -1.3136,4.2244 -2.1789,8.5752 -2.5819,12.9807 0.1146,24.9259 14.9032,47.4447 37.7307,57.4554 l 53.1158,-113.9059 21.3087,-45.6931 53.0092,-113.6824 c -8.1867,-3.7651 -17.0854,-5.7318 -26.0962,-5.7674 z"
             style="fill:#e2e2e2;fill-opacity:1;stroke:none;stroke-width:3.6367;stroke-linecap:round;stroke-linejoin:round;stroke-dasharray:none;paint-order:stroke markers fill"
             id="path3528" /></g></g></g></g></svg>
